<?xml version="1.0" encoding="UTF-8" standalone="no" ?>
<!DOCTYPE svg PUBLIC "-//W3C//DTD SVG 1.1//EN" "http://www.w3.org/Graphics/SVG/1.1/DTD/svg11.dtd">
<svg xmlns="http://www.w3.org/2000/svg" xmlns:xlink="http://www.w3.org/1999/xlink" version="1.1" width="1080" height="1080" viewBox="0 0 1080 1080" xml:space="preserve">
<desc>Created with Fabric.js 5.2.4</desc>
<defs>
</defs>
<g transform="matrix(1 0 0 1 540 540)" id="0488add2-9b10-41d8-97c6-5692481d1640"  >
<rect style="stroke: none; stroke-width: 1; stroke-dasharray: none; stroke-linecap: butt; stroke-dashoffset: 0; stroke-linejoin: miter; stroke-miterlimit: 4; fill: rgb(255,255,255); fill-rule: nonzero; opacity: 1; visibility: hidden;" vector-effect="non-scaling-stroke"  x="-540" y="-540" rx="0" ry="0" width="1080" height="1080" />
</g>
<g transform="matrix(1 0 0 1 540 540)" id="51ccd800-6765-4da4-9b31-0626a063aebf"  >
</g>
<g transform="matrix(1 0 0 1 540 540)" id="d8405a25-5e12-42b5-844d-8aee71da3a26"  >
<path style="stroke: rgb(0,0,0); stroke-width: 0; stroke-dasharray: none; stroke-linecap: butt; stroke-dashoffset: 0; stroke-linejoin: miter; stroke-miterlimit: 4; fill: rgb(255,255,255); fill-rule: nonzero; opacity: 1;" vector-effect="non-scaling-stroke"  transform=" translate(-511.81, -512.28)" d="M 896 853.333333 L 768 853.333333 C 744.4358508803156 853.333333 725.3333335522848 834.2308161196845 725.333333 810.6666670000001 L 725.333333 682.6666670000001 C 830.5621368569999 681.6955881297098 919.3635956462799 604.1370622207764 934.4843145410132 499.99577350465904 C 949.6050334357463 395.8544847885415 886.5275008415023 296.24399886415233 785.9200000000001 265.3866670000001 C 732.3384540694574 142.26534610108286 603.179373977509 70.03695079841842 470.2279116566054 88.84520406485325 C 337.2764493357017 107.65345733128808 233.220562514971 212.8740897003605 215.89333299999998 346.02666700000026 C 131.69009124652172 366.19155536719114 75.9292820463645 446.21441118399844 86.17231500216789 532.1905062367648 C 96.41534795797128 618.1666012895312 169.41607895922482 682.8490453452134 255.99999999999997 682.666667 L 298.666667 682.666667 L 298.666667 810.666667 C 298.6666664477153 834.2308161196844 279.5641491196845 853.3333329999999 256 853.3333329999999 L 128 853.3333329999999 C 104.43585048979122 853.3333329999999 85.33333299999998 872.4358504897912 85.33333299999998 896 C 85.33333299999998 919.5641495102087 104.43585048979122 938.666667 128 938.666667 L 256 938.666667 C 326.69244797834153 938.666667 384 881.3591149783415 384 810.666667 L 384 682.666667 L 469.333333 682.666667 L 469.333333 896 C 469.33333274446375 911.2433321255277 477.4655534770824 925.3287519763268 490.66666629352346 932.9504181128576 C 503.8677791099645 940.5720842493885 520.1322208900355 940.5720842493885 533.3333337064765 932.9504181128576 C 546.5344465229175 925.3287519763268 554.6666672555363 911.2433321255277 554.666667 896 L 554.666667 682.666667 L 640 682.666667 L 640 810.666667 C 640 881.3591149783415 697.3075520216585 938.666667 768 938.666667 L 896 938.666667 C 919.5641495102088 938.666667 938.666667 919.5641495102087 938.666667 896 C 938.666667 872.4358504897912 919.5641495102088 853.3333329999999 896 853.3333329999999 z M 256 597.333333 C 225.51333602963626 597.3333336259335 197.34249653826666 581.0688923764147 182.09916437239337 554.6666670057622 C 166.8558322065201 528.2644416351097 166.85583220652006 495.7355583648904 182.09916437239337 469.33333299423794 C 197.34249653826663 442.9311076235854 225.5133360296362 426.6666663740666 255.99999999999994 426.6666670000001 C 267.31590365489274 426.6666670000001 278.1683373567 422.1714417759566 286.1698895663283 414.1698895663284 C 294.17144177595657 406.1683373567001 298.666667 395.3159036548928 298.666667 384.00000000000006 C 298.89173216255347 279.79465163250296 374.36560368174133 191.00062023923002 477.1732857457343 173.98927721912247 C 579.9809678097272 156.97793419901492 680.0340675113302 216.7279344773873 713.8133330000001 315.3066669999999 C 718.7827433269496 330.2459185570667 731.575384698284 341.2344692223347 747.093333 343.89333300000004 C 808.224615689837 354.43820785955273 852.9954568275452 407.30016486552137 853.333333 469.3333329999999 C 853.333333 503.28104369946163 839.8476574332266 535.8383445505297 815.8430009918782 559.8430009918781 C 791.8383445505297 583.8476574332266 759.2810436994617 597.333333 725.333333 597.333333 L 256 597.333333 z" stroke-linecap="round" />
</g>
</svg>