<?xml version="1.0" encoding="UTF-8" standalone="no" ?>
<!DOCTYPE svg PUBLIC "-//W3C//DTD SVG 1.1//EN" "http://www.w3.org/Graphics/SVG/1.1/DTD/svg11.dtd">
<svg xmlns="http://www.w3.org/2000/svg" xmlns:xlink="http://www.w3.org/1999/xlink" version="1.1" width="1080" height="1080" viewBox="0 0 1080 1080" xml:space="preserve">
<desc>Created with Fabric.js 5.2.4</desc>
<defs>
</defs>
<g transform="matrix(1 0 0 1 540 540)" id="46a6b68e-87ba-44b5-b88d-7e69984c429e"  >
<rect style="stroke: none; stroke-width: 1; stroke-dasharray: none; stroke-linecap: butt; stroke-dashoffset: 0; stroke-linejoin: miter; stroke-miterlimit: 4; fill: rgb(255,255,255); fill-rule: nonzero; opacity: 1; visibility: hidden;" vector-effect="non-scaling-stroke"  x="-540" y="-540" rx="0" ry="0" width="1080" height="1080" />
</g>
<g transform="matrix(1 0 0 1 540 540)" id="3d2d0019-1d0e-4cb1-9196-fc9b4cdd1266"  >
</g>
<g transform="matrix(1 0 0 1 540 540)"  >
<path style="stroke: rgb(0,0,0); stroke-width: 0; stroke-dasharray: none; stroke-linecap: butt; stroke-dashoffset: 0; stroke-linejoin: miter; stroke-miterlimit: 4; fill: rgb(240,240,240); fill-rule: nonzero; opacity: 1;" vector-effect="non-scaling-stroke"  transform=" translate(-513, -527.63)" d="M 612.9 602.53 L 547.78 537.42 C 532.5 522.14 507.72999999999996 522.14 492.45 537.42 C 477.18 552.6999999999999 477.18 577.48 492.46 592.75 L 494.09999999999997 594.39 L 453.59999999999997 594.39 C 431.98999999999995 594.39 414.47999999999996 611.91 414.47999999999996 633.51 C 414.47999999999996 655.12 431.99999999999994 672.63 453.59999999999997 672.63 L 498.30999999999995 672.63 L 492.22999999999996 678.8 C 477.06999999999994 694.1999999999999 477.25999999999993 718.9799999999999 492.65999999999997 734.13 C 500.28 741.64 510.2 745.38 520.11 745.38 C 530.23 745.38 540.33 741.48 547.99 733.71 L 613.11 667.57 C 621.86 658.6800000000001 625.33 646.6700000000001 623.87 635.19 C 625.38 623.58 621.83 611.44 612.9 602.5300000000001 z M 239.12 123.86 C 161.31 123.86 98 182.93 98 255.55 L 98 799.73 C 98 872.34 161.31 931.4100000000001 239.12 931.4100000000001 C 316.94 931.4100000000001 380.25 872.34 380.25 799.73 L 380.25 255.55 C 380.25 182.93 316.94 123.86000000000001 239.12 123.86000000000001 z M 302 799.72 C 302 829.1800000000001 273.79 853.15 239.12 853.15 C 204.46 853.15 176.25 829.17 176.25 799.72 L 176.25 255.55 C 176.25 226.09 204.46 202.12 239.12 202.12 C 273.79 202.12 302 226.1 302 255.55 L 302 799.72 z M 786.86 123.86 C 709.05 123.86 645.74 182.93 645.74 255.54000000000002 L 645.74 799.72 C 645.74 872.33 709.05 931.4000000000001 786.86 931.4000000000001 C 864.6800000000001 931.4000000000001 927.99 872.33 927.99 799.72 L 927.99 255.55 C 928 182.93 864.6800000000001 123.86000000000001 786.86 123.86000000000001 z M 849.75 799.72 C 849.75 829.1800000000001 821.54 853.15 786.87 853.15 C 752.21 853.15 724 829.17 724 799.72 L 724 255.55 C 724 226.09 752.21 202.12 786.87 202.12 C 821.54 202.12 849.75 226.1 849.75 255.55 L 849.75 799.72 z M 612.91 355.33 L 547.8 290.2 C 532.52 274.92 507.74999999999994 274.92 492.46999999999997 290.2 C 477.19 305.46 477.19 330.24 492.46 345.53 L 494.09999999999997 347.16999999999996 L 453.60999999999996 347.16999999999996 C 431.99999999999994 347.16999999999996 414.48999999999995 364.68999999999994 414.48999999999995 386.28999999999996 C 414.48999999999995 407.89 432.00999999999993 425.40999999999997 453.60999999999996 425.40999999999997 L 498.31999999999994 425.40999999999997 L 492.23999999999995 431.58 C 477.0799999999999 446.97999999999996 477.2699999999999 471.76 492.66999999999996 486.90999999999997 C 500.28999999999996 494.41999999999996 510.21 498.15999999999997 520.12 498.15999999999997 C 530.24 498.15999999999997 540.34 494.26 548 486.48999999999995 L 613.12 420.34999999999997 C 621.87 411.46 625.34 399.46 623.89 387.96999999999997 C 625.38 376.38 621.8199999999999 364.23999999999995 612.91 355.33 z" stroke-linecap="round" />
</g>
</svg>