<?xml version="1.0" encoding="UTF-8" standalone="no" ?>
<!DOCTYPE svg PUBLIC "-//W3C//DTD SVG 1.1//EN" "http://www.w3.org/Graphics/SVG/1.1/DTD/svg11.dtd">
<svg xmlns="http://www.w3.org/2000/svg" xmlns:xlink="http://www.w3.org/1999/xlink" version="1.1" width="1080" height="1080" viewBox="0 0 1080 1080" xml:space="preserve">
<desc>Created with Fabric.js 5.2.4</desc>
<defs>
</defs>
<g transform="matrix(1 0 0 1 540 540)" id="d84f6248-d7a4-4022-8bae-771d3d81a043"  >
<rect style="stroke: none; stroke-width: 1; stroke-dasharray: none; stroke-linecap: butt; stroke-dashoffset: 0; stroke-linejoin: miter; stroke-miterlimit: 4; fill: rgb(255,255,255); fill-rule: nonzero; opacity: 1; visibility: hidden;" vector-effect="non-scaling-stroke"  x="-540" y="-540" rx="0" ry="0" width="1080" height="1080" />
</g>
<g transform="matrix(1 0 0 1 540 540)" id="d7a44704-b4df-4de7-a010-84fa5597c2a5"  >
</g>
<g transform="matrix(1 0 0 1 540 540)" id="5a56a747-760a-4e61-ac6a-7a301713a9cb"  >
<path style="stroke: rgb(0,0,0); stroke-width: 0; stroke-dasharray: none; stroke-linecap: butt; stroke-dashoffset: 0; stroke-linejoin: miter; stroke-miterlimit: 4; fill: rgb(252,252,252); fill-rule: nonzero; opacity: 1;" vector-effect="non-scaling-stroke"  transform=" translate(-511.97, -519.93)" d="M 793.728 312.32 C 769.682065923656 174.37412973513625 649.9022806965221 73.71361216195854 509.8763328202943 73.77677938779652 C 369.8503849440665 73.83994661363451 250.16146655445584 174.60849111976216 226.2399999999999 312.5760000000001 C 126.26809329716352 320.3870760297463 49.089267324856706 403.723490644609 48.959999999999866 504 C 49.06788255405883 602.73837685557 123.95332341267633 685.3419699120279 222.20799999999988 695.104 C 224.45932941461325 695.3211548365664 226.69737597895005 694.5751782027988 228.36819428952785 693.0507089413227 C 230.03901260010565 691.5262396798466 230.98644872573263 689.365754005253 230.97599999999989 687.104 L 230.97599999999989 626.6880000000001 C 230.98564069017678 622.7073569162515 228.0671688298481 619.3252026108238 224.12799999999987 618.7520000000001 C 162.3044010462975 608.3655377481123 119.90985893273333 550.7505565922322 128.38550877832034 488.63615129528745 C 136.86115862390736 426.5217459983427 193.14183241962195 382.3712192550347 255.4879999999999 388.92800000000005 L 256 388.92800000000005 L 257.024 389.05600000000004 L 258.048 389.12000000000006 L 262.784 389.12000000000006 L 263.808 389.05600000000004 L 264.704 388.92800000000005 L 265.6 388.80000000000007 L 266.624 388.6720000000001 L 267.32800000000003 388.5440000000001 L 268.54400000000004 388.2880000000001 L 269.05600000000004 388.16000000000014 L 270.336 387.84000000000015 L 270.72 387.71200000000016 C 271.21423545082746 387.5746545694544 271.7050480189742 387.42527683132283 272.192 387.2640000000002 L 272.384 387.20000000000016 C 275.7974544389574 386.03970965651945 279.02950743144424 384.40213614032615 281.98400000000004 382.3360000000002 L 283.456 381.3120000000002 L 283.584 381.24800000000016 C 284.0173253779314 380.8932407766082 284.4440647476677 380.5305123123323 284.864 380.16000000000014 L 285.056 380.03200000000015 L 286.20799999999997 379.00800000000015 L 286.46399999999994 378.7520000000002 L 287.4239999999999 377.7920000000002 L 287.80799999999994 377.4080000000002 L 288.63999999999993 376.4480000000002 L 289.0879999999999 376.0000000000002 L 289.8559999999999 375.04000000000025 L 290.2399999999999 374.52800000000025 L 290.8799999999999 373.63200000000023 L 291.3919999999999 372.99200000000025 L 291.9679999999999 372.09600000000023 L 292.3519999999999 371.45600000000024 L 292.9919999999999 370.56000000000023 L 293.3119999999999 369.92000000000024 L 293.8239999999999 368.89600000000024 L 294.1439999999999 368.25600000000026 C 294.63068978585466 367.3677971926091 295.05828397998687 366.4484696752248 295.42399999999986 365.50400000000025 L 295.6159999999999 364.86400000000026 C 295.7694220733892 364.4816026216025 295.9187638896134 364.09758080845467 296.06399999999985 363.7120000000003 L 296.25599999999986 363.2000000000003 C 296.39448815395906 362.7765502945513 296.5225269695719 362.3497542425086 296.6399999999999 361.9200000000003 L 296.76799999999986 361.4080000000003 C 296.9068543817898 360.96317261263613 297.0348920817801 360.51504066267023 297.1519999999999 360.0640000000003 L 297.27999999999986 359.4880000000003 L 297.53599999999983 358.2080000000003 L 297.59999999999985 357.5680000000003 C 297.72799999999984 357.1840000000003 297.72799999999984 356.73600000000033 297.79199999999986 356.28800000000035 L 297.79199999999986 356.0320000000004 L 297.8559999999999 355.5200000000004 L 297.98399999999987 354.4960000000004 L 298.0479999999999 353.4720000000004 L 298.0479999999999 352.9600000000004 C 302.135018353513 238.83179756032314 395.9030559853504 148.4572357499703 510.1043507633166 148.57799240607986 C 624.3056455412827 148.69874906218942 717.8823492522702 239.27140954163588 721.7279999999998 353.40800000000024 L 721.7279999999998 354.56 C 721.8559999999999 354.944 721.7279999999998 355.2 721.7919999999998 355.456 C 721.8559999999998 355.776 721.7919999999998 355.904 721.9199999999998 356.096 C 721.9565005225902 356.5658734838519 721.9991708693941 357.035247298695 722.0479999999999 357.504 L 722.1119999999999 357.824 C 722.1868371740162 358.33769416623596 722.2721884079929 358.84980157009585 722.3679999999998 359.36 L 722.4319999999998 359.68 L 722.8159999999998 361.28000000000003 L 722.8799999999998 361.6 L 723.3279999999997 363.072 L 723.4559999999998 363.52 L 723.9039999999998 364.79999999999995 L 724.0959999999998 365.376 C 724.2356700905389 365.74257077614976 724.3850561449872 366.10536547980985 724.5439999999998 366.464 L 724.8639999999998 367.104 L 725.2479999999998 368.128 C 725.5014046342936 368.6734392043371 725.7790138922151 369.20730316187814 726.0799999999998 369.728 L 726.5279999999998 370.56 L 726.9759999999998 371.264 L 727.4879999999997 372.16 L 727.8719999999997 372.8 L 728.5119999999997 373.696 L 728.8959999999997 374.27200000000005 L 729.5359999999997 375.16800000000006 L 729.9839999999997 375.68000000000006 L 730.6879999999996 376.5760000000001 L 731.1999999999996 377.0880000000001 L 731.9039999999995 377.85600000000005 L 732.4159999999995 378.49600000000004 L 733.1199999999994 379.136 L 733.7599999999994 379.776 L 734.3999999999994 380.35200000000003 L 735.1679999999994 380.992 L 735.8079999999994 381.504 L 736.6399999999994 382.144 L 737.2159999999994 382.592 L 738.1759999999995 383.23199999999997 L 738.6879999999994 383.616 C 739.0456069405014 383.83782045910095 739.4083736045002 384.05121261439433 739.7759999999994 384.256 L 740.1599999999994 384.51199999999994 C 740.5766182152906 384.78438661990754 741.0036032340615 385.0405776311701 741.4399999999994 385.2799999999999 L 741.7599999999994 385.4079999999999 C 742.1815242373756 385.65189759144334 742.6082913580358 385.8866195078065 743.0399999999994 386.1119999999999 L 743.3599999999994 386.2399999999999 L 744.7039999999995 386.8799999999999 L 745.0239999999995 387.00799999999987 C 745.4457427718081 387.19072780902906 745.8725808831524 387.3614630535668 746.3039999999995 387.51999999999987 L 746.7519999999995 387.64799999999985 L 747.9679999999995 388.09599999999983 L 748.4799999999994 388.2239999999998 L 749.5039999999995 388.5439999999998 L 750.3359999999994 388.7359999999998 L 750.9759999999994 388.9279999999998 L 752.1279999999995 389.1839999999998 L 752.4479999999995 389.1839999999998 C 755.1686205636659 389.6963053528706 757.9369291826044 389.91090292023017 760.7039999999995 389.8239999999998 L 763.1999999999995 389.8239999999998 L 764.0319999999995 389.6959999999998 C 826.0136509337907 382.33005948790657 882.7165482901553 425.3171200908033 892.3629233166719 486.9850175817494 C 902.0092983431887 548.6529150726956 861.1422711631596 606.9023102399442 799.8719999999994 618.8159999999998 C 795.9568243622514 619.3856602264908 793.0460765345313 622.7316600658327 793.0239999999995 626.6879999999998 L 793.0239999999995 687.1039999999998 C 793.0135512742668 689.3657540052528 793.9609873998937 691.5262396798464 795.6318057104716 693.0507089413225 C 797.3026240210494 694.5751782027986 799.5406705853862 695.3211548365662 801.7919999999996 695.1039999999998 C 900.00700186522 685.2828798760378 974.8417252451815 602.7047261389481 974.9759999999995 503.9999999999999 C 974.8380023866678 402.1967208872097 895.3643668095098 318.1488612284568 793.7279999999996 312.31999999999977 z M 737.5999999999999 543.36 L 528 422.4 C 518.0991655437278 416.68375056146937 505.9008344562721 416.68375056146937 496 422.4 L 286.4 543.36 C 276.47958878009393 549.0875223463458 270.3773937026204 559.6809330008398 270.4 571.136 L 270.4 813.12 C 270.40029042348897 824.5522084472593 276.49941705798983 835.1158957782148 286.4 840.832 L 496 961.792 C 505.9008344562721 967.5082494385307 518.099165543728 967.5082494385307 528 961.792 L 737.6 840.832 C 747.5005829420102 835.1158957782148 753.599709576511 824.5522084472593 753.6 813.12 L 753.6 571.136 C 753.599709576511 559.7037915527407 747.5005829420102 549.1401042217851 737.6 543.424 z M 487.9999999999999 883.328 L 334.39999999999986 794.688 L 334.39999999999986 620.352 L 487.9999999999999 708.992 L 487.9999999999999 883.328 z M 512 667.392 L 355.84 577.28 L 512 487.04 L 668.16 577.28 L 512 667.392 z M 689.6 794.6880000000001 L 536 883.3280000000001 L 536 708.9920000000001 L 689.6 620.3520000000001 L 689.6 794.6880000000001 z" stroke-linecap="round" />
</g>
</svg>