<?xml version="1.0" encoding="UTF-8" standalone="no" ?>
<!DOCTYPE svg PUBLIC "-//W3C//DTD SVG 1.1//EN" "http://www.w3.org/Graphics/SVG/1.1/DTD/svg11.dtd">
<svg xmlns="http://www.w3.org/2000/svg" xmlns:xlink="http://www.w3.org/1999/xlink" version="1.1" width="1080" height="1080" viewBox="0 0 1080 1080" xml:space="preserve">
<desc>Created with Fabric.js 5.2.4</desc>
<defs>
</defs>
<g transform="matrix(1 0 0 1 540 540)" id="d000fdbd-1f48-4d0e-bc9a-02776172250f"  >
<rect style="stroke: none; stroke-width: 1; stroke-dasharray: none; stroke-linecap: butt; stroke-dashoffset: 0; stroke-linejoin: miter; stroke-miterlimit: 4; fill: rgb(255,255,255); fill-rule: nonzero; opacity: 1; visibility: hidden;" vector-effect="non-scaling-stroke"  x="-540" y="-540" rx="0" ry="0" width="1080" height="1080" />
</g>
<g transform="matrix(1 0 0 1 540 540)" id="41ff74b1-4668-4c0d-941a-3ced062c5c00"  >
</g>
<g transform="matrix(1 0 0 1 540 540)" id="52b3e29f-92a0-4064-b9ec-606c43347428"  >
<path style="stroke: rgb(0,0,0); stroke-width: 0; stroke-dasharray: none; stroke-linecap: butt; stroke-dashoffset: 0; stroke-linejoin: miter; stroke-miterlimit: 4; fill: rgb(255,255,255); fill-rule: nonzero; opacity: 1;" vector-effect="non-scaling-stroke"  transform=" translate(-512.95, -512.05)" d="M 513 890.5 C 313 890.5 211.7 838.7 211.7 736.6 C 211.7 659.7 322.9 614.8000000000001 418.2 599.7 L 416.7 590.3000000000001 C 355.5 544.9000000000001 325.4 460.00000000000006 325.4 332.4000000000001 C 325.4 207.9000000000001 394.4 133.60000000000008 510.09999999999997 133.60000000000008 L 516.0999999999999 133.60000000000008 C 631.8 133.60000000000008 700.8 207.9000000000001 700.8 332.4000000000001 C 700.8 379.2000000000001 700.8 521.5000000000001 608 595.1000000000001 L 609.5 601.4000000000001 C 703.2 614.9000000000001 814.4 659.8000000000001 814.4 736.7 C 814.3 838.7 712.9 890.5 513 890.5 z M 509.9 191.5 C 450.4 191.5 379.59999999999997 215.5 379.59999999999997 329.6 C 379.59999999999997 441.8 405.4 513.8 458.5 550 C 466.9 555.8 472.1 566.2 472.1 577.2 L 472.1 629.4000000000001 C 472.40000000000003 645.4000000000001 461.5 659.1000000000001 446.70000000000005 661.1000000000001 C 335.4 673.6 264.5 720 264.5 740 C 264.5 816.5 399.7 832.5 513 832.5 C 626.3 832.5 761.4 816.4 761.4 740 C 761.4 719.9 690.5 673.6 579.3 661.1 C 564.4 659 553.1999999999999 644.8000000000001 553.9 628.7 L 554.9 576.6 C 555 565.9 560 556 568.4 550.1 C 621.6 513.8000000000001 646.4 443.8 646.4 329.70000000000005 C 646.4 215.60000000000005 575.5 191.60000000000005 516 191.60000000000005 L 509.9 191.60000000000005 z M 922.7 677.4 C 908.3000000000001 676.9 897 664 897.3000000000001 648.6 C 897.3000000000001 637.3000000000001 846.4000000000001 594.4 777.9000000000001 586.2 C 764.6000000000001 584.2 754.8000000000001 571.9000000000001 755.1000000000001 557.5 L 755.1000000000001 509.9 C 755.1000000000001 500.09999999999997 759.5000000000001 491.09999999999997 766.8000000000002 485.79999999999995 C 816.8000000000002 449.49999999999994 822.2000000000002 367.79999999999995 822.2000000000002 334.29999999999995 C 822.2000000000002 259.69999999999993 778.0000000000001 243.99999999999994 741.0000000000001 243.99999999999994 C 726.6000000000001 243.59999999999994 715.2000000000002 230.69999999999993 715.6000000000001 215.29999999999995 C 715.4000000000001 207.99999999999994 717.9000000000001 200.89999999999995 722.7000000000002 195.49999999999994 C 727.5000000000001 189.99999999999994 733.9000000000002 186.89999999999995 740.9000000000002 186.79999999999995 C 822.5000000000002 186.79999999999995 873.1000000000001 243.29999999999995 873.1000000000001 334.4 C 873.1000000000001 374.2 866.4000000000001 472.5 804.0000000000001 526.5 L 805.7000000000002 534.6 C 859.9000000000002 545.2 948.2000000000002 587.5 948.2000000000002 648.9 C 948.4000000000002 656.3 945.9000000000002 663.4 941.1000000000001 668.8 C 936.3000000000002 674.1999999999999 929.9000000000001 677.3 922.9000000000001 677.5 L 922.7 677.5 z M 103.20000000000005 677.4 C 96.20000000000005 677.1999999999999 89.70000000000005 674.1 84.90000000000005 668.6999999999999 C 80.10000000000005 663.3 77.60000000000005 656.1999999999999 77.70000000000005 648.5999999999999 C 77.70000000000005 587.3999999999999 165.80000000000004 545.1999999999999 221.30000000000004 532.8999999999999 L 219.90000000000003 521.9999999999999 C 159.40000000000003 472.39999999999986 152.80000000000004 374.1999999999999 152.80000000000004 334.39999999999986 C 152.80000000000004 243.39999999999986 203.40000000000003 186.79999999999987 284.90000000000003 186.79999999999987 C 291.90000000000003 186.99999999999986 298.50000000000006 190.09999999999988 303.3 195.49999999999986 C 308 200.79999999999987 310.6 208.19999999999985 310.40000000000003 215.59999999999985 C 310.8 230.79999999999984 299.40000000000003 243.59999999999985 285.1 243.99999999999986 C 247.90000000000003 243.99999999999986 203.70000000000002 259.6999999999999 203.70000000000002 334.29999999999984 C 203.70000000000002 367.79999999999984 209.10000000000002 449.49999999999983 259.1 485.79999999999984 C 266.5 491.1999999999998 270.90000000000003 500.29999999999984 270.8 509.89999999999986 L 270.8 557.6999999999998 C 271.1 571.9999999999998 261.40000000000003 584.1999999999998 248.20000000000002 586.1999999999998 C 179.60000000000002 594.3999999999999 128.60000000000002 637.4999999999998 128.60000000000002 648.7999999999998 C 129.00000000000003 664.0999999999998 117.70000000000002 676.9999999999999 103.30000000000003 677.4999999999999 L 103.20000000000003 677.4999999999999 z" stroke-linecap="round" />
</g>
</svg>