<?xml version="1.0" standalone="no"?>
<!DOCTYPE svg PUBLIC "-//W3C//DTD SVG 1.1//EN" "http://www.w3.org/Graphics/SVG/1.1/DTD/svg11.dtd">
<svg xmlns="http://www.w3.org/2000/svg" xmlns:xlink="http://www.w3.org/1999/xlink" version="1.1" id="Layer_1" x="0px" y="0px" viewBox="0 0 900 504" style="enable-background:new 0 0 900 504;" xml:space="preserve" width="900" height="504">
<style type="text/css">
	.st0{fill:#0072C9;}
</style>
<g>
	<path class="st0" d="M329.24,247.17c0,4.44-0.85,8.87-2.52,12.98c-0.86,2.12-1.94,4.15-3.2,6.06c-0.1,0.14-0.2,0.3-0.3,0.44   c-6.54,9.65-17.24,14.42-28.7,14.95c-5.11,0.24-10.25,0.39-15.38,0.38v-14.06c2.03,0.11,4.06,0.2,6.1,0.26   c2.75,0.09,5.57,0.04,8.34-0.31c5.81-0.7,11.38-2.65,15.51-7.14c3.06-3.32,5.07-7.65,5.38-12.18c0.04-0.69,0.05-1.37,0.03-2.06   v-0.08c-0.47-10.28-9.48-18.64-19.32-19.85c-0.58-0.05-1.18-0.08-1.78-0.08c-3.93,0-7.62,1.05-10.77,2.89   c-8.24,5.43-9.53,16.92-9.73,26.78h-0.04v50.31h-15.32c0-6.85,0-13.69,0-20.54c0-9.26,0.01-18.72,0.06-28.05   c0.04-8.61,0.01-17.67,3.87-25.6c3.31-6.79,8.97-12.34,15.61-15.88c5.99-3.19,12.87-4.77,19.65-4.18   c12.94,1.13,24.9,9.72,29.89,21.74C328.34,238.13,329.24,242.64,329.24,247.17z"/>
	<path class="st0" d="M538.09,211.26c-20.14,0-36.46,15.72-36.46,35.11s16.32,35.11,36.46,35.11s36.46-15.72,36.46-35.11   S558.23,211.26,538.09,211.26z M538.09,269.91c-13.5,0-24.45-10.54-24.45-23.54c0-13,10.94-23.54,24.45-23.54   c13.5,0,24.45,10.54,24.45,23.54C562.54,259.37,551.59,269.91,538.09,269.91z"/>
	<polygon class="st0" points="443.79,226.13 443.79,213.25 425.25,213.25 425.25,197.55 409.29,197.55 409.29,213.25 397.96,213.25    397.96,226.13  "/>
	<path class="st0" d="M362.18,282.38c-5.84,0-11.37-0.75-16.61-2.25c-5.23-1.5-9.44-3.32-12.61-5.47l6.18-12.23   c3.09,1.98,6.78,3.58,11.07,4.83c4.29,1.24,8.62,1.87,13,1.87c4.98,0,8.6-0.66,10.88-2c2.27-1.33,3.41-3.15,3.41-5.47   c0-1.89-0.77-3.32-2.32-4.31c-1.54-0.99-3.56-1.74-6.05-2.25c-2.49-0.51-5.26-0.99-8.3-1.42c-3.05-0.43-6.09-1.01-9.14-1.74   c-3.05-0.73-5.81-1.8-8.3-3.22c-2.49-1.42-4.51-3.32-6.05-5.73c-1.54-2.4-2.32-5.62-2.32-9.65c0-4.29,1.24-8.05,3.73-11.26   c2.49-3.22,5.99-5.73,10.49-7.53s9.85-2.7,16.03-2.7c4.55,0,9.2,0.54,13.97,1.61c4.76,1.07,8.73,2.55,11.91,4.44l-6.31,12.23   c-3.18-1.89-6.44-3.2-9.78-3.93c-3.35-0.73-6.65-1.09-9.91-1.09c-4.81,0-8.41,0.71-10.81,2.12c-2.4,1.42-3.6,3.24-3.6,5.47   c0,2.06,0.77,3.6,2.32,4.63c1.54,1.03,3.56,1.82,6.05,2.38c2.49,0.56,5.26,1.07,8.3,1.54c3.05,0.47,6.07,1.07,9.08,1.8   c3,0.73,5.77,1.76,8.3,3.09c2.53,1.33,4.57,3.2,6.11,5.6c1.54,2.4,2.32,5.54,2.32,9.4c0,4.38-1.27,8.13-3.8,11.26   c-2.53,3.13-6.09,5.58-10.68,7.34C374.13,281.5,368.61,282.38,362.18,282.38z"/>
	<path class="st0" d="M611.45,282.38c-5.84,0-11.37-0.75-16.61-2.25c-5.24-1.5-9.44-3.32-12.61-5.47l6.18-12.23   c3.09,1.98,6.78,3.58,11.07,4.83c4.29,1.24,8.62,1.87,13,1.87c4.98,0,8.6-0.66,10.88-2c2.27-1.33,3.41-3.15,3.41-5.47   c0-1.89-0.77-3.32-2.32-4.31c-1.54-0.99-3.56-1.74-6.05-2.25c-2.49-0.51-5.26-0.99-8.3-1.42c-3.05-0.43-6.09-1.01-9.14-1.74   c-3.05-0.73-5.81-1.8-8.3-3.22c-2.49-1.42-4.51-3.32-6.05-5.73c-1.54-2.4-2.32-5.62-2.32-9.65c0-4.29,1.24-8.05,3.73-11.26   c2.49-3.22,5.99-5.73,10.49-7.53s9.85-2.7,16.03-2.7c4.55,0,9.2,0.54,13.97,1.61c4.76,1.07,8.73,2.55,11.91,4.44l-6.31,12.23   c-3.18-1.89-6.44-3.2-9.78-3.93c-3.35-0.73-6.65-1.09-9.91-1.09c-4.81,0-8.41,0.71-10.81,2.12c-2.4,1.42-3.6,3.24-3.6,5.47   c0,2.06,0.77,3.6,2.32,4.63c1.54,1.03,3.56,1.82,6.05,2.38c2.49,0.56,5.26,1.07,8.3,1.54c3.05,0.47,6.07,1.07,9.08,1.8   c3,0.73,5.77,1.76,8.3,3.09c2.53,1.33,4.57,3.2,6.11,5.6c1.54,2.4,2.32,5.54,2.32,9.4c0,4.38-1.27,8.13-3.8,11.26   c-2.53,3.13-6.09,5.58-10.68,7.34C623.39,281.5,617.88,282.38,611.45,282.38z"/>
	<path class="st0" d="M443.79,266.29c-2.32,1.89-5.24,2.83-8.75,2.83c-3.09,0-5.49-0.9-7.21-2.7c-1.72-1.8-2.57-4.33-2.57-7.59   v-27.16h-15.96v27.67c0,7.55,2.06,13.28,6.18,17.18c4.12,3.91,9.95,5.86,17.51,5.86c2.83,0,5.62-0.39,8.37-1.16   c2.75-0.77,5.1-1.93,7.08-3.48L443.79,266.29z"/>
	<path class="st0" d="M473.67,215.91c-6.07,3.89-10.56,10.02-12.98,16.77c-2.84,7.94-2.41,16.48-2.3,24.78   c0.09,6.45-0.04,12.92-0.04,19.38c0,0.25,0,4.65,0,4.65c0,0,15.96,0,15.96,0v-33.21c0-7.2,1.8-12.57,5.41-16.09   c3.6-3.51,8.49-5.27,14.67-5.27c0.51,0,1.07,0.02,1.67,0.06c0.6,0.04,1.2,0.11,1.81,0.19v-15.32   C497.87,211.84,485.08,208.58,473.67,215.91z"/>
</g>
</svg>