<?xml version="1.0" encoding="UTF-8" standalone="no" ?>
<!DOCTYPE svg PUBLIC "-//W3C//DTD SVG 1.1//EN" "http://www.w3.org/Graphics/SVG/1.1/DTD/svg11.dtd">
<svg xmlns="http://www.w3.org/2000/svg" xmlns:xlink="http://www.w3.org/1999/xlink" version="1.1" width="1080" height="1080" viewBox="0 0 1080 1080" xml:space="preserve">
<desc>Created with Fabric.js 5.2.4</desc>
<defs>
</defs>
<g transform="matrix(1 0 0 1 540 540)" id="a31cc731-28fa-4013-9036-5d98a073fb18"  >
<rect style="stroke: none; stroke-width: 1; stroke-dasharray: none; stroke-linecap: butt; stroke-dashoffset: 0; stroke-linejoin: miter; stroke-miterlimit: 4; fill: rgb(255,255,255); fill-rule: nonzero; opacity: 1; visibility: hidden;" vector-effect="non-scaling-stroke"  x="-540" y="-540" rx="0" ry="0" width="1080" height="1080" />
</g>
<g transform="matrix(1 0 0 1 540 540)" id="2e293345-0c73-4183-b069-771ea8c2383b"  >
</g>
<g transform="matrix(1 0 0 1 540 540)" id="d5690064-5038-4ffe-9655-18eb81c1649f"  >
<path style="stroke: rgb(0,0,0); stroke-width: 0; stroke-dasharray: none; stroke-linecap: butt; stroke-dashoffset: 0; stroke-linejoin: miter; stroke-miterlimit: 4; fill: rgb(255,255,255); fill-rule: nonzero; opacity: 1;" vector-effect="non-scaling-stroke"  transform=" translate(-512.34, -508.2)" d="M 718.011492 452.668707 L 599.163687 452.668707 C 578.964646 452.668707 574.519404 449.560926 570.221518 441.28544899999997 C 566.8937259999999 434.854993 566.6225499999999 422.99999099999997 566.921356 416.17760799999996 C 570.3913869999999 336.80793299999993 534.5787399999999 281.51460599999996 534.5787399999999 281.51460599999996 C 515.7007869999999 274.43332699999996 518.056438 274.48449199999993 518.056438 294.628275 C 518.056438 294.628275 517.468037 363.11508899999995 490.63694799999996 403.626758 C 486.335992 410.142149 443.93632299999996 449.58446299999997 439.28437299999996 452.556144 L 439.28437299999996 744.807278 L 690.659541 744.807278 C 708.122261 744.807278 722.315518 731.741704 722.315518 715.591886 L 722.315518 699.163728 L 667.523611 699.163728 C 657.460418 699.163728 649.266805 690.977278 649.266805 680.895666 C 649.266805 670.814054 657.460418 662.63886 667.523611 662.63886 L 749.691006 662.63886 L 749.691006 626.136505 L 667.5236110000001 626.136505 C 657.4604180000001 626.136505 649.2668050000001 617.946985 649.2668050000001 607.8684430000001 C 649.2668050000001 597.787854 657.4604180000001 589.6116370000001 667.5236110000001 589.6116370000001 L 749.691006 589.6116370000001 L 749.691006 543.9578540000001 L 667.5236110000001 543.9578540000001 C 657.4604180000001 543.9578540000001 649.2668050000001 535.7826610000001 649.2668050000001 525.7020710000002 C 649.2668050000001 515.6132950000001 657.4604180000001 507.4340090000002 667.5236110000001 507.4340090000002 L 749.691006 507.4340090000002 L 749.691006 481.87284300000016 C 749.688959 465.756793 735.488539 452.668707 718.011492 452.668707 L 718.011492 452.668707 z M 274.999726 481.887168 L 274.999726 715.5918839999999 C 274.999726 731.7417019999999 289.159214 744.8072759999999 306.621934 744.8072759999999 L 402.769738 744.8072759999999 L 402.769738 452.668707 L 306.621934 452.668707 C 289.136701 452.668707 274.999726 465.756793 274.999726 481.887168 L 274.999726 481.887168 z M 338.873476 653.495618 C 348.973508 653.495618 357.143585 661.6820680000001 357.143585 671.76368 C 357.143585 681.844269 348.97248499999995 690.031742 338.873476 690.031742 C 328.77651399999996 690.031742 320.605414 681.844269 320.605414 671.76368 C 320.606437 661.682068 328.777537 653.495618 338.873476 653.495618 L 338.873476 653.495618 z M 512.346389 59.323107 C 264.432043 59.323107 63.48028800000003 260.29123500000003 63.48028800000003 508.203534 C 63.48028800000003 756.076948 264.432043 957.078845 512.346389 957.078845 C 760.2382220000001 957.078845 961.189977 756.075925 961.189977 508.203534 C 961.189977 260.282025 760.238222 59.323107 512.346389 59.323107 L 512.346389 59.323107 z M 786.210757 664.056138 L 786.210757 671.745261 C 786.210757 686.885076 773.9341529999999 699.132005 758.791267 699.132005 L 758.791267 744.789881 C 758.791267 764.975619 742.46237 781.300423 722.314494 781.300423 L 439.28335 781.300422 L 402.76973799999996 781.300422 L 393.669476 781.300422 L 274.999726 781.300422 C 254.799662 781.300422 238.48611400000001 764.960269 238.48611400000001 744.78988 L 238.486114 452.668707 C 238.486114 432.507528 254.81910399999998 416.178631 274.999726 416.178631 L 430.07973400000003 416.178631 C 441.73007500000006 406.466432 455.16199200000005 392.57812 466.10625200000004 373.959064 C 491.347123 331.091744 481.886657 260.97992 481.886657 260.97992 C 481.886657 240.798275 509.405407 230.22342899999998 528.251638 237.268892 C 528.251638 237.268892 560.4909 254.404154 578.5328109999999 279.817964 C 605.7435459999999 318.18273700000003 607.6069869999999 383.16882 606.5304689999999 416.159189 L 749.68896 416.159189 C 769.8358119999999 416.159189 786.2097349999999 432.50752900000003 786.2097349999999 452.658474 L 786.209734 664.056138 L 786.210757 664.056138 z M 786.210757 664.056138" stroke-linecap="round" />
</g>
</svg>