<?xml version="1.0" encoding="UTF-8" standalone="no" ?>
<!DOCTYPE svg PUBLIC "-//W3C//DTD SVG 1.1//EN" "http://www.w3.org/Graphics/SVG/1.1/DTD/svg11.dtd">
<svg xmlns="http://www.w3.org/2000/svg" xmlns:xlink="http://www.w3.org/1999/xlink" version="1.1" width="200" height="100" viewBox="21.43 6.43 200 100" xml:space="preserve">
<desc>Created with Fabric.js 5.2.4</desc>
<defs>
</defs>
<rect x="0" y="0" width="100%" height="100%" fill="transparent"></rect>
<g transform="matrix(1 0 0 1 100 50)" id="40184393-fa8c-42d5-808e-9edfee76e20d"  >
<rect style="stroke: none; stroke-width: 1; stroke-dasharray: none; stroke-linecap: butt; stroke-dashoffset: 0; stroke-linejoin: miter; stroke-miterlimit: 4; fill: rgb(255,255,255); fill-rule: nonzero; opacity: 1; visibility: hidden;" vector-effect="non-scaling-stroke"  x="-100" y="-50" rx="0" ry="0" width="200" height="100" />
</g>
<g transform="matrix(Infinity NaN NaN Infinity 0 0)" id="13bcb3e0-a099-4da8-b36c-8c4ec91305ca"  >
</g>
<g transform="matrix(0.51 0 0 0.51 120.36 65)"  >
<g style="" vector-effect="non-scaling-stroke"   >
		<g transform="matrix(1 0 0 1 -156.63 7.27)"  >
<path style="stroke: none; stroke-width: 1; stroke-dasharray: none; stroke-linecap: butt; stroke-dashoffset: 0; stroke-linejoin: miter; stroke-miterlimit: 4; fill: rgb(255,255,255); fill-rule: nonzero; opacity: 1;" vector-effect="non-scaling-stroke"  transform=" translate(-293.39, -259.27)" d="M 329.24 247.17 C 329.24 251.60999999999999 328.39 256.03999999999996 326.72 260.15 C 325.86 262.27 324.78000000000003 264.29999999999995 323.52000000000004 266.21 C 323.42 266.34999999999997 323.32000000000005 266.51 323.22 266.65 C 316.68 276.29999999999995 305.98 281.07 294.52000000000004 281.59999999999997 C 289.41 281.84 284.27000000000004 281.98999999999995 279.14000000000004 281.97999999999996 L 279.14000000000004 267.91999999999996 C 281.17 268.03 283.20000000000005 268.11999999999995 285.24000000000007 268.17999999999995 C 287.99000000000007 268.2699999999999 290.81000000000006 268.21999999999997 293.58000000000004 267.86999999999995 C 299.39000000000004 267.16999999999996 304.96000000000004 265.21999999999997 309.09000000000003 260.72999999999996 C 312.15000000000003 257.40999999999997 314.16 253.07999999999996 314.47 248.54999999999995 C 314.51000000000005 247.85999999999996 314.52000000000004 247.17999999999995 314.5 246.48999999999995 L 314.5 246.40999999999994 C 314.03 236.12999999999994 305.02 227.76999999999992 295.18 226.55999999999995 C 294.6 226.50999999999993 294 226.47999999999993 293.40000000000003 226.47999999999993 C 289.47 226.47999999999993 285.78000000000003 227.52999999999994 282.63000000000005 229.36999999999992 C 274.39000000000004 234.79999999999993 273.1000000000001 246.2899999999999 272.90000000000003 256.1499999999999 L 272.86 256.1499999999999 L 272.86 306.4599999999999 L 257.54 306.4599999999999 C 257.54 299.6099999999999 257.54 292.7699999999999 257.54 285.9199999999999 C 257.54 276.6599999999999 257.55 267.19999999999993 257.6 257.8699999999999 C 257.64000000000004 249.25999999999988 257.61 240.19999999999987 261.47 232.2699999999999 C 264.78000000000003 225.4799999999999 270.44000000000005 219.9299999999999 277.08000000000004 216.3899999999999 C 283.07000000000005 213.1999999999999 289.95000000000005 211.6199999999999 296.73 212.2099999999999 C 309.67 213.3399999999999 321.63 221.9299999999999 326.62 233.9499999999999 C 328.34 238.13 329.24 242.64 329.24 247.17 z" stroke-linecap="round" />
</g>
		<g transform="matrix(1 0 0 1 88.07 -5.63)"  >
<path style="stroke: none; stroke-width: 1; stroke-dasharray: none; stroke-linecap: butt; stroke-dashoffset: 0; stroke-linejoin: miter; stroke-miterlimit: 4; fill: rgb(255,255,255); fill-rule: nonzero; opacity: 1;" vector-effect="non-scaling-stroke"  transform=" translate(-538.09, -246.37)" d="M 538.09 211.26 C 517.95 211.26 501.63000000000005 226.98 501.63000000000005 246.37 C 501.63000000000005 265.76 517.95 281.48 538.09 281.48 C 558.23 281.48 574.5500000000001 265.76 574.5500000000001 246.37 C 574.5500000000001 226.98000000000002 558.23 211.26 538.09 211.26 z M 538.09 269.91 C 524.59 269.91 513.64 259.37 513.64 246.37000000000003 C 513.64 233.37000000000003 524.58 222.83000000000004 538.09 222.83000000000004 C 551.59 222.83000000000004 562.5400000000001 233.37000000000003 562.5400000000001 246.37000000000003 C 562.54 259.37 551.59 269.91 538.09 269.91 z" stroke-linecap="round" />
</g>
		<g transform="matrix(1 0 0 1 -29.14 -40.16)"  >
<polygon style="stroke: none; stroke-width: 1; stroke-dasharray: none; stroke-linecap: butt; stroke-dashoffset: 0; stroke-linejoin: miter; stroke-miterlimit: 4; fill: rgb(255,255,255); fill-rule: nonzero; opacity: 1;" vector-effect="non-scaling-stroke"  points="22.92,14.29 22.92,1.41 4.38,1.41 4.38,-14.29 -11.58,-14.29 -11.58,1.41 -22.92,1.41 -22.92,14.29 " />
</g>
		<g transform="matrix(1 0 0 1 -86.93 -4.89)"  >
<path style="stroke: none; stroke-width: 1; stroke-dasharray: none; stroke-linecap: butt; stroke-dashoffset: 0; stroke-linejoin: miter; stroke-miterlimit: 4; fill: rgb(255,255,255); fill-rule: nonzero; opacity: 1;" vector-effect="non-scaling-stroke"  transform=" translate(-363.09, -247.11)" d="M 362.18 282.38 C 356.34000000000003 282.38 350.81 281.63 345.57 280.13 C 340.34 278.63 336.13 276.81 332.96 274.65999999999997 L 339.14 262.42999999999995 C 342.22999999999996 264.40999999999997 345.91999999999996 266.00999999999993 350.21 267.25999999999993 C 354.5 268.49999999999994 358.83 269.12999999999994 363.21 269.12999999999994 C 368.19 269.12999999999994 371.81 268.4699999999999 374.09 267.12999999999994 C 376.35999999999996 265.79999999999995 377.5 263.97999999999996 377.5 261.6599999999999 C 377.5 259.7699999999999 376.73 258.3399999999999 375.18 257.3499999999999 C 373.64 256.3599999999999 371.62 255.6099999999999 369.13 255.0999999999999 C 366.64 254.58999999999992 363.87 254.1099999999999 360.83 253.67999999999992 C 357.78 253.24999999999991 354.74 252.66999999999993 351.69 251.9399999999999 C 348.64 251.20999999999992 345.88 250.1399999999999 343.39 248.7199999999999 C 340.9 247.29999999999993 338.88 245.39999999999992 337.34 242.98999999999992 C 335.79999999999995 240.58999999999992 335.02 237.36999999999992 335.02 233.33999999999992 C 335.02 229.04999999999993 336.26 225.2899999999999 338.75 222.07999999999993 C 341.24 218.85999999999993 344.74 216.34999999999994 349.24 214.54999999999993 C 353.74 212.74999999999991 359.09000000000003 211.84999999999994 365.27 211.84999999999994 C 369.82 211.84999999999994 374.46999999999997 212.38999999999993 379.24 213.45999999999995 C 384 214.52999999999994 387.97 216.00999999999996 391.15000000000003 217.89999999999995 L 384.84000000000003 230.12999999999994 C 381.66 228.23999999999995 378.40000000000003 226.92999999999995 375.06000000000006 226.19999999999993 C 371.71000000000004 225.46999999999994 368.4100000000001 225.10999999999993 365.15000000000003 225.10999999999993 C 360.34000000000003 225.10999999999993 356.74 225.81999999999994 354.34000000000003 227.22999999999993 C 351.94000000000005 228.64999999999992 350.74 230.46999999999994 350.74 232.69999999999993 C 350.74 234.75999999999993 351.51 236.29999999999993 353.06 237.32999999999993 C 354.6 238.35999999999993 356.62 239.14999999999992 359.11 239.70999999999992 C 361.6 240.26999999999992 364.37 240.77999999999992 367.41 241.24999999999991 C 370.46000000000004 241.7199999999999 373.48 242.3199999999999 376.49 243.04999999999993 C 379.49 243.77999999999992 382.26 244.80999999999992 384.79 246.13999999999993 C 387.32 247.46999999999994 389.36 249.33999999999992 390.90000000000003 251.73999999999992 C 392.44000000000005 254.13999999999993 393.22 257.2799999999999 393.22 261.13999999999993 C 393.22 265.5199999999999 391.95000000000005 269.2699999999999 389.42 272.3999999999999 C 386.89000000000004 275.5299999999999 383.33000000000004 277.9799999999999 378.74 279.7399999999999 C 374.13 281.5 368.61 282.38 362.18 282.38 z" stroke-linecap="round" />
</g>
		<g transform="matrix(1 0 0 1 162.35 -4.89)"  >
<path style="stroke: none; stroke-width: 1; stroke-dasharray: none; stroke-linecap: butt; stroke-dashoffset: 0; stroke-linejoin: miter; stroke-miterlimit: 4; fill: rgb(255,255,255); fill-rule: nonzero; opacity: 1;" vector-effect="non-scaling-stroke"  transform=" translate(-612.36, -247.11)" d="M 611.45 282.38 C 605.61 282.38 600.08 281.63 594.84 280.13 C 589.6 278.63 585.4 276.81 582.23 274.65999999999997 L 588.41 262.42999999999995 C 591.5 264.40999999999997 595.1899999999999 266.00999999999993 599.48 267.25999999999993 C 603.77 268.49999999999994 608.1 269.12999999999994 612.48 269.12999999999994 C 617.46 269.12999999999994 621.08 268.4699999999999 623.36 267.12999999999994 C 625.63 265.79999999999995 626.77 263.97999999999996 626.77 261.6599999999999 C 626.77 259.7699999999999 626 258.3399999999999 624.4499999999999 257.3499999999999 C 622.91 256.3599999999999 620.89 255.6099999999999 618.4 255.0999999999999 C 615.91 254.58999999999992 613.14 254.1099999999999 610.1 253.67999999999992 C 607.0500000000001 253.24999999999991 604.01 252.66999999999993 600.96 251.9399999999999 C 597.9100000000001 251.20999999999992 595.1500000000001 250.1399999999999 592.6600000000001 248.7199999999999 C 590.1700000000001 247.29999999999993 588.1500000000001 245.39999999999992 586.6100000000001 242.98999999999992 C 585.0700000000002 240.58999999999992 584.2900000000001 237.36999999999992 584.2900000000001 233.33999999999992 C 584.2900000000001 229.04999999999993 585.5300000000001 225.2899999999999 588.0200000000001 222.07999999999993 C 590.5100000000001 218.85999999999993 594.0100000000001 216.34999999999994 598.5100000000001 214.54999999999993 C 603.0100000000001 212.74999999999991 608.3600000000001 211.84999999999994 614.5400000000001 211.84999999999994 C 619.09 211.84999999999994 623.7400000000001 212.38999999999993 628.5100000000001 213.45999999999995 C 633.2700000000001 214.52999999999994 637.2400000000001 216.00999999999996 640.4200000000001 217.89999999999995 L 634.1100000000001 230.12999999999994 C 630.9300000000002 228.23999999999995 627.6700000000001 226.92999999999995 624.3300000000002 226.19999999999993 C 620.9800000000001 225.46999999999994 617.6800000000002 225.10999999999993 614.4200000000002 225.10999999999993 C 609.6100000000002 225.10999999999993 606.0100000000002 225.81999999999994 603.6100000000002 227.22999999999993 C 601.2100000000003 228.64999999999992 600.0100000000002 230.46999999999994 600.0100000000002 232.69999999999993 C 600.0100000000002 234.75999999999993 600.7800000000002 236.29999999999993 602.3300000000003 237.32999999999993 C 603.8700000000002 238.35999999999993 605.8900000000002 239.14999999999992 608.3800000000002 239.70999999999992 C 610.8700000000002 240.26999999999992 613.6400000000002 240.77999999999992 616.6800000000002 241.24999999999991 C 619.7300000000001 241.7199999999999 622.7500000000002 242.3199999999999 625.7600000000002 243.04999999999993 C 628.7600000000002 243.77999999999992 631.5300000000002 244.80999999999992 634.0600000000002 246.13999999999993 C 636.5900000000001 247.46999999999994 638.6300000000002 249.33999999999992 640.1700000000002 251.73999999999992 C 641.7100000000002 254.13999999999993 642.4900000000002 257.2799999999999 642.4900000000002 261.13999999999993 C 642.4900000000002 265.5199999999999 641.2200000000003 269.2699999999999 638.6900000000003 272.3999999999999 C 636.1600000000003 275.5299999999999 632.6000000000003 277.9799999999999 628.0100000000003 279.7399999999999 C 623.39 281.5 617.88 282.38 611.45 282.38 z" stroke-linecap="round" />
</g>
		<g transform="matrix(1 0 0 1 -21.15 5.02)"  >
<path style="stroke: none; stroke-width: 1; stroke-dasharray: none; stroke-linecap: butt; stroke-dashoffset: 0; stroke-linejoin: miter; stroke-miterlimit: 4; fill: rgb(255,255,255); fill-rule: nonzero; opacity: 1;" vector-effect="non-scaling-stroke"  transform=" translate(-428.87, -257.03)" d="M 443.79 266.29 C 441.47 268.18 438.55 269.12 435.04 269.12 C 431.95000000000005 269.12 429.55 268.22 427.83000000000004 266.42 C 426.11 264.62 425.26000000000005 262.09000000000003 425.26000000000005 258.83000000000004 L 425.26000000000005 231.67000000000004 L 409.30000000000007 231.67000000000004 L 409.30000000000007 259.34000000000003 C 409.30000000000007 266.89000000000004 411.36000000000007 272.62 415.4800000000001 276.52000000000004 C 419.6000000000001 280.43000000000006 425.43000000000006 282.38000000000005 432.99000000000007 282.38000000000005 C 435.82000000000005 282.38000000000005 438.61000000000007 281.99000000000007 441.36000000000007 281.22 C 444.11000000000007 280.45000000000005 446.4600000000001 279.29 448.44000000000005 277.74 L 443.79 266.29 z" stroke-linecap="round" />
</g>
		<g transform="matrix(1 0 0 1 28.07 -5.7)"  >
<path style="stroke: none; stroke-width: 1; stroke-dasharray: none; stroke-linecap: butt; stroke-dashoffset: 0; stroke-linejoin: miter; stroke-miterlimit: 4; fill: rgb(255,255,255); fill-rule: nonzero; opacity: 1;" vector-effect="non-scaling-stroke"  transform=" translate(-478.09, -246.3)" d="M 473.67 215.91 C 467.6 219.79999999999998 463.11 225.93 460.69 232.68 C 457.85 240.62 458.28 249.16 458.39 257.46000000000004 C 458.47999999999996 263.91 458.34999999999997 270.38000000000005 458.34999999999997 276.84000000000003 C 458.34999999999997 277.09000000000003 458.34999999999997 281.49 458.34999999999997 281.49 C 458.34999999999997 281.49 474.30999999999995 281.49 474.30999999999995 281.49 L 474.30999999999995 248.28 C 474.30999999999995 241.08 476.10999999999996 235.71 479.71999999999997 232.19 C 483.32 228.68 488.21 226.92 494.39 226.92 C 494.9 226.92 495.46 226.94 496.06 226.98 C 496.66 227.01999999999998 497.26 227.09 497.87 227.17 L 497.87 211.85 C 497.87 211.84 485.08 208.58 473.67 215.91 z" stroke-linecap="round" />
</g>
</g>
</g>
</svg>