<svg width="619" height="172" viewBox="0 0 619 172" fill="none" xmlns="http://www.w3.org/2000/svg">
<mask id="mask0_1585_706" style="mask-type:luminance" maskUnits="userSpaceOnUse" x="49" y="1" width="21" height="9">
<path d="M49.7583 1.58936H69.0197V9.53655H49.7583V1.58936Z" fill="white"/>
</mask>
<g mask="url(#mask0_1585_706)">
<mask id="mask1_1585_706" style="mask-type:luminance" maskUnits="userSpaceOnUse" x="-36" y="-37" width="245" height="241">
<path d="M-35.6511 66.8246L109.066 -36.0791L208.069 100.451L63.3517 203.355L-35.6511 66.8246Z" fill="white"/>
</mask>
<g mask="url(#mask1_1585_706)">
<mask id="mask2_1585_706" style="mask-type:luminance" maskUnits="userSpaceOnUse" x="-36" y="-37" width="245" height="241">
<path d="M-35.6511 66.8246L109.066 -36.0791L208.069 100.451L63.3517 203.355L-35.6511 66.8246Z" fill="white"/>
</mask>
<g mask="url(#mask2_1585_706)">
<path d="M60.7933 4.91111C51.6141 8.99646 51.0623 9.24481 50.498 8.99025C51.1501 7.09659 64.0663 2.30344 68.7437 1.59564C68.5556 1.75086 68.5556 1.75086 67.6025 2.10476C65.7278 2.80014 63.8468 3.54519 60.7933 4.91111Z" fill="#22D36B"/>
</g>
</g>
</g>
<mask id="mask3_1585_706" style="mask-type:luminance" maskUnits="userSpaceOnUse" x="57" y="0" width="19" height="10">
<path d="M57.7839 0H75.4402V9.53663H57.7839V0Z" fill="white"/>
</mask>
<g mask="url(#mask3_1585_706)">
<mask id="mask4_1585_706" style="mask-type:luminance" maskUnits="userSpaceOnUse" x="-36" y="-37" width="245" height="241">
<path d="M-35.6511 66.8246L109.066 -36.0791L208.069 100.451L63.3517 203.355L-35.6511 66.8246Z" fill="white"/>
</mask>
<g mask="url(#mask4_1585_706)">
<mask id="mask5_1585_706" style="mask-type:luminance" maskUnits="userSpaceOnUse" x="-36" y="-37" width="245" height="241">
<path d="M-35.6511 66.8246L109.066 -36.0791L208.069 100.451L63.3517 203.355L-35.6511 66.8246Z" fill="white"/>
</mask>
<g mask="url(#mask5_1585_706)">
<path d="M69.9915 4.47653C62.8186 8.77919 59.0128 9.01512 59.4141 7.69887C60.1288 5.37059 69.9978 1.57084 74.0732 1.24799C74.1736 1.24799 74.3115 1.25419 74.4056 1.27903C74.4244 1.31007 74.4494 1.36595 74.4683 1.397C74.0983 2.01166 70.1608 4.37719 69.9915 4.47653Z" fill="#22D36B"/>
</g>
</g>
</g>
<mask id="mask6_1585_706" style="mask-type:luminance" maskUnits="userSpaceOnUse" x="70" y="0" width="14" height="10">
<path d="M70.6252 0H83.4661V9.53663H70.6252V0Z" fill="white"/>
</mask>
<g mask="url(#mask6_1585_706)">
<mask id="mask7_1585_706" style="mask-type:luminance" maskUnits="userSpaceOnUse" x="-36" y="-37" width="245" height="241">
<path d="M-35.6511 66.8246L109.066 -36.0791L208.069 100.451L63.3517 203.355L-35.6511 66.8246Z" fill="white"/>
</mask>
<g mask="url(#mask7_1585_706)">
<mask id="mask8_1585_706" style="mask-type:luminance" maskUnits="userSpaceOnUse" x="-36" y="-37" width="245" height="241">
<path d="M-35.6511 66.8246L109.066 -36.0791L208.069 100.451L63.3517 203.355L-35.6511 66.8246Z" fill="white"/>
</mask>
<g mask="url(#mask8_1585_706)">
<path d="M82.1114 4.34612C79.014 8.31972 72.5434 9.0213 72.2361 6.80478C71.8913 4.38337 78.3619 1.23554 81.8856 1.08032C84.5441 1.17345 82.2054 4.21574 82.1114 4.34612Z" fill="#22D36B"/>
</g>
</g>
</g>
<mask id="mask9_1585_706" style="mask-type:luminance" maskUnits="userSpaceOnUse" x="85" y="0" width="12" height="10">
<path d="M85.0708 0H96.3066V9.53663H85.0708V0Z" fill="white"/>
</mask>
<g mask="url(#mask9_1585_706)">
<mask id="mask10_1585_706" style="mask-type:luminance" maskUnits="userSpaceOnUse" x="-36" y="-37" width="245" height="241">
<path d="M-35.6511 66.8246L109.066 -36.0791L208.069 100.451L63.3517 203.355L-35.6511 66.8246Z" fill="white"/>
</mask>
<g mask="url(#mask10_1585_706)">
<mask id="mask11_1585_706" style="mask-type:luminance" maskUnits="userSpaceOnUse" x="-36" y="-37" width="245" height="241">
<path d="M-35.6511 66.8246L109.066 -36.0791L208.069 100.451L63.3517 203.355L-35.6511 66.8246Z" fill="white"/>
</mask>
<g mask="url(#mask11_1585_706)">
<path d="M94.8837 4.5262C95.5107 7.76717 90.4007 9.23243 87.5228 7.35739C84.4944 5.38922 86.6951 1.85024 89.6483 1.22315C90.0119 1.14244 90.3129 1.13623 90.5574 1.13623C92.846 1.26041 94.5827 2.99264 94.8837 4.5262Z" fill="#22D36B"/>
</g>
</g>
</g>
<mask id="mask12_1585_706" style="mask-type:luminance" maskUnits="userSpaceOnUse" x="96" y="0" width="14" height="10">
<path d="M96.3064 0H109.147V9.53663H96.3064V0Z" fill="white"/>
</mask>
<g mask="url(#mask12_1585_706)">
<mask id="mask13_1585_706" style="mask-type:luminance" maskUnits="userSpaceOnUse" x="-36" y="-37" width="245" height="241">
<path d="M-35.6511 66.8246L109.066 -36.0791L208.069 100.451L63.3517 203.355L-35.6511 66.8246Z" fill="white"/>
</mask>
<g mask="url(#mask13_1585_706)">
<mask id="mask14_1585_706" style="mask-type:luminance" maskUnits="userSpaceOnUse" x="-36" y="-37" width="245" height="241">
<path d="M-35.6511 66.8246L109.066 -36.0791L208.069 100.451L63.3517 203.355L-35.6511 66.8246Z" fill="white"/>
</mask>
<g mask="url(#mask14_1585_706)">
<path d="M107.009 4.9731C109.229 7.00956 108.527 8.51208 106.483 8.63626C101.567 8.92807 96.5009 3.14152 98.1186 1.62658C98.3756 1.38444 98.7894 1.37823 99.0967 1.37823C101.172 1.54587 104.934 3.0608 107.009 4.9731Z" fill="#22D36B"/>
</g>
</g>
</g>
<mask id="mask15_1585_706" style="mask-type:luminance" maskUnits="userSpaceOnUse" x="105" y="1" width="17" height="9">
<path d="M105.937 1.58936H121.988V9.53655H105.937V1.58936Z" fill="white"/>
</mask>
<g mask="url(#mask15_1585_706)">
<mask id="mask16_1585_706" style="mask-type:luminance" maskUnits="userSpaceOnUse" x="-36" y="-37" width="245" height="241">
<path d="M-35.6511 66.8246L109.066 -36.0791L208.069 100.451L63.3517 203.355L-35.6511 66.8246Z" fill="white"/>
</mask>
<g mask="url(#mask16_1585_706)">
<mask id="mask17_1585_706" style="mask-type:luminance" maskUnits="userSpaceOnUse" x="-36" y="-37" width="245" height="241">
<path d="M-35.6511 66.8246L109.066 -36.0791L208.069 100.451L63.3517 203.355L-35.6511 66.8246Z" fill="white"/>
</mask>
<g mask="url(#mask17_1585_706)">
<path d="M117.205 5.65617C120.59 7.56226 121.481 9.05857 120.358 9.35038C119.6 9.55527 117.562 9.17653 114.314 7.4505C111.574 5.99766 106.188 2.35933 106.22 1.86263C106.307 1.79434 106.358 1.78813 106.615 1.79434C108.571 2.01164 113.549 3.58866 117.205 5.65617Z" fill="#22D36B"/>
</g>
</g>
</g>
<mask id="mask18_1585_706" style="mask-type:luminance" maskUnits="userSpaceOnUse" x="110" y="1" width="22" height="11">
<path d="M110.753 1.58936H131.619V11.126H110.753V1.58936Z" fill="white"/>
</mask>
<g mask="url(#mask18_1585_706)">
<mask id="mask19_1585_706" style="mask-type:luminance" maskUnits="userSpaceOnUse" x="-36" y="-37" width="245" height="241">
<path d="M-35.6511 66.8246L109.066 -36.0791L208.069 100.451L63.3517 203.355L-35.6511 66.8246Z" fill="white"/>
</mask>
<g mask="url(#mask19_1585_706)">
<mask id="mask20_1585_706" style="mask-type:luminance" maskUnits="userSpaceOnUse" x="-36" y="-37" width="245" height="241">
<path d="M-35.6511 66.8246L109.066 -36.0791L208.069 100.451L63.3517 203.355L-35.6511 66.8246Z" fill="white"/>
</mask>
<g mask="url(#mask20_1585_706)">
<path d="M123.983 6.49432C127.061 7.92233 130.29 9.80358 130.14 10.3624C129.97 10.4182 129.619 10.5424 126.879 9.33171C126.754 9.26962 112.27 2.47726 112.095 2.35929L112.201 2.34067C113.223 2.53314 118.559 3.98598 123.983 6.49432Z" fill="#22D36B"/>
</g>
</g>
</g>
<mask id="mask21_1585_706" style="mask-type:luminance" maskUnits="userSpaceOnUse" x="25" y="11" width="19" height="17">
<path d="M25.6819 11.1261H43.3381V27.0204H25.6819V11.1261Z" fill="white"/>
</mask>
<g mask="url(#mask21_1585_706)">
<mask id="mask22_1585_706" style="mask-type:luminance" maskUnits="userSpaceOnUse" x="-36" y="-37" width="245" height="241">
<path d="M-35.6511 66.8246L109.066 -36.0791L208.069 100.451L63.3517 203.355L-35.6511 66.8246Z" fill="white"/>
</mask>
<g mask="url(#mask22_1585_706)">
<mask id="mask23_1585_706" style="mask-type:luminance" maskUnits="userSpaceOnUse" x="-36" y="-37" width="245" height="241">
<path d="M-35.6511 66.8246L109.066 -36.0791L208.069 100.451L63.3517 203.355L-35.6511 66.8246Z" fill="white"/>
</mask>
<g mask="url(#mask23_1585_706)">
<path d="M36.3781 18.7441C30.7288 23.5869 27.5688 25.8407 26.9794 25.4371C26.7411 23.3634 39.4754 13.4108 43.0242 12.3677L43.1559 12.3615C43.1873 12.5975 43.2186 12.8706 36.3781 18.7441Z" fill="#22D36B"/>
</g>
</g>
</g>
<mask id="mask24_1585_706" style="mask-type:luminance" maskUnits="userSpaceOnUse" x="35" y="11" width="18" height="15">
<path d="M35.3125 11.1261H52.9687V25.431H35.3125V11.1261Z" fill="white"/>
</mask>
<g mask="url(#mask24_1585_706)">
<mask id="mask25_1585_706" style="mask-type:luminance" maskUnits="userSpaceOnUse" x="-36" y="-37" width="245" height="241">
<path d="M-35.6511 66.8246L109.066 -36.0791L208.069 100.451L63.3517 203.355L-35.6511 66.8246Z" fill="white"/>
</mask>
<g mask="url(#mask25_1585_706)">
<mask id="mask26_1585_706" style="mask-type:luminance" maskUnits="userSpaceOnUse" x="-36" y="-37" width="245" height="241">
<path d="M-35.6511 66.8246L109.066 -36.0791L208.069 100.451L63.3517 203.355L-35.6511 66.8246Z" fill="white"/>
</mask>
<g mask="url(#mask26_1585_706)">
<path d="M48.147 17.8439C42.5855 23.5187 36.2905 25.9401 36.2152 23.3076C36.1212 19.7313 46.2848 12.107 50.9309 11.511C54.279 11.542 48.2097 17.7818 48.147 17.8439Z" fill="#22D36B"/>
</g>
</g>
</g>
<mask id="mask27_1585_706" style="mask-type:luminance" maskUnits="userSpaceOnUse" x="51" y="9" width="19" height="15">
<path d="M51.3638 9.53654H69.02V23.8415H51.3638V9.53654Z" fill="white"/>
</mask>
<g mask="url(#mask27_1585_706)">
<mask id="mask28_1585_706" style="mask-type:luminance" maskUnits="userSpaceOnUse" x="-36" y="-37" width="245" height="241">
<path d="M-35.6511 66.8245L109.066 -36.0792L208.069 100.451L63.3517 203.355L-35.6511 66.8245Z" fill="white"/>
</mask>
<g mask="url(#mask28_1585_706)">
<mask id="mask29_1585_706" style="mask-type:luminance" maskUnits="userSpaceOnUse" x="-36" y="-37" width="245" height="241">
<path d="M-35.6511 66.8245L109.066 -36.0792L208.069 100.451L63.3517 203.355L-35.6511 66.8245Z" fill="white"/>
</mask>
<g mask="url(#mask29_1585_706)">
<path d="M66.2357 17.3657C62.3233 23.5372 53.2569 25.5798 52.1032 21.6745C50.9872 17.881 58.5299 11.3804 64.524 10.9769C69.1701 11.1073 67.3393 15.6334 66.2357 17.3657Z" fill="#22D36B"/>
</g>
</g>
</g>
<mask id="mask30_1585_706" style="mask-type:luminance" maskUnits="userSpaceOnUse" x="72" y="9" width="17" height="15">
<path d="M72.2302 9.53654H88.2814V23.8415H72.2302V9.53654Z" fill="white"/>
</mask>
<g mask="url(#mask30_1585_706)">
<mask id="mask31_1585_706" style="mask-type:luminance" maskUnits="userSpaceOnUse" x="-36" y="-37" width="245" height="241">
<path d="M-35.6511 66.8245L109.066 -36.0792L208.069 100.451L63.3517 203.355L-35.6511 66.8245Z" fill="white"/>
</mask>
<g mask="url(#mask31_1585_706)">
<mask id="mask32_1585_706" style="mask-type:luminance" maskUnits="userSpaceOnUse" x="-36" y="-37" width="245" height="241">
<path d="M-35.6511 66.8245L109.066 -36.0792L208.069 100.451L63.3517 203.355L-35.6511 66.8245Z" fill="white"/>
</mask>
<g mask="url(#mask32_1585_706)">
<path d="M86.9896 17.4092C85.6666 23.978 75.7287 25.4246 73.0514 20.8923C70.7378 16.987 75.7475 11.0824 81.5598 10.8651C86.1682 11.1011 87.51 14.8325 86.9896 17.4092Z" fill="#22D36B"/>
</g>
</g>
</g>
<mask id="mask33_1585_706" style="mask-type:luminance" maskUnits="userSpaceOnUse" x="93" y="11" width="17" height="15">
<path d="M93.0967 11.1261H109.148V25.431H93.0967V11.1261Z" fill="white"/>
</mask>
<g mask="url(#mask33_1585_706)">
<mask id="mask34_1585_706" style="mask-type:luminance" maskUnits="userSpaceOnUse" x="-36" y="-37" width="245" height="241">
<path d="M-35.6511 66.8246L109.066 -36.0791L208.069 100.451L63.3517 203.355L-35.6511 66.8246Z" fill="white"/>
</mask>
<g mask="url(#mask34_1585_706)">
<mask id="mask35_1585_706" style="mask-type:luminance" maskUnits="userSpaceOnUse" x="-36" y="-37" width="245" height="241">
<path d="M-35.6511 66.8246L109.066 -36.0791L208.069 100.451L63.3517 203.355L-35.6511 66.8246Z" fill="white"/>
</mask>
<g mask="url(#mask35_1585_706)">
<path d="M107.743 17.9307C109.047 23.3261 102.213 25.5116 97.3159 22.5562C91.9112 19.2966 92.789 12.616 97.4852 11.3618C98.1372 11.188 98.7329 11.1818 99.2094 11.1694C104 11.5233 107.135 15.4162 107.743 17.9307Z" fill="#22D36B"/>
</g>
</g>
</g>
<mask id="mask36_1585_706" style="mask-type:luminance" maskUnits="userSpaceOnUse" x="112" y="11" width="17" height="15">
<path d="M112.358 11.1261H128.409V25.431H112.358V11.1261Z" fill="white"/>
</mask>
<g mask="url(#mask36_1585_706)">
<mask id="mask37_1585_706" style="mask-type:luminance" maskUnits="userSpaceOnUse" x="-36" y="-37" width="245" height="241">
<path d="M-35.6511 66.8246L109.066 -36.0791L208.069 100.451L63.3517 203.355L-35.6511 66.8246Z" fill="white"/>
</mask>
<g mask="url(#mask37_1585_706)">
<mask id="mask38_1585_706" style="mask-type:luminance" maskUnits="userSpaceOnUse" x="-36" y="-37" width="245" height="241">
<path d="M-35.6511 66.8246L109.066 -36.0791L208.069 100.451L63.3517 203.355L-35.6511 66.8246Z" fill="white"/>
</mask>
<g mask="url(#mask38_1585_706)">
<path d="M126.377 18.8683C128.935 22.8729 126.916 25.7041 122.289 24.5865C115.317 22.8977 110.389 14.131 113.938 12.169C114.527 11.8462 115.091 11.8462 115.687 11.8462C119.787 12.2684 124.427 15.826 126.377 18.8683Z" fill="#22D36B"/>
</g>
</g>
</g>
<mask id="mask39_1585_706" style="mask-type:luminance" maskUnits="userSpaceOnUse" x="126" y="12" width="19" height="16">
<path d="M126.804 12.7154H144.461V27.0204H126.804V12.7154Z" fill="white"/>
</mask>
<g mask="url(#mask39_1585_706)">
<mask id="mask40_1585_706" style="mask-type:luminance" maskUnits="userSpaceOnUse" x="-36" y="-37" width="245" height="241">
<path d="M-35.6506 66.8247L109.067 -36.079L208.069 100.451L63.3522 203.355L-35.6506 66.8247Z" fill="white"/>
</mask>
<g mask="url(#mask40_1585_706)">
<mask id="mask41_1585_706" style="mask-type:luminance" maskUnits="userSpaceOnUse" x="-36" y="-37" width="245" height="241">
<path d="M-35.6506 66.8247L109.067 -36.079L208.069 100.451L63.3522 203.355L-35.6506 66.8247Z" fill="white"/>
</mask>
<g mask="url(#mask41_1585_706)">
<path d="M140.755 20.1537C144.047 23.6492 144.498 26.381 141.739 26.1203C136.134 25.5987 126.196 14.4292 128.322 12.9764C128.554 12.8149 128.917 12.8274 129.212 12.8336C132.472 13.3489 137.808 17.0369 140.755 20.1537Z" fill="#22D36B"/>
</g>
</g>
</g>
<mask id="mask42_1585_706" style="mask-type:luminance" maskUnits="userSpaceOnUse" x="136" y="12" width="19" height="17">
<path d="M136.435 12.7154H154.091V28.6098H136.435V12.7154Z" fill="white"/>
</mask>
<g mask="url(#mask42_1585_706)">
<mask id="mask43_1585_706" style="mask-type:luminance" maskUnits="userSpaceOnUse" x="-36" y="-37" width="245" height="241">
<path d="M-35.6506 66.8247L109.067 -36.079L208.069 100.451L63.3522 203.355L-35.6506 66.8247Z" fill="white"/>
</mask>
<g mask="url(#mask43_1585_706)">
<mask id="mask44_1585_706" style="mask-type:luminance" maskUnits="userSpaceOnUse" x="-36" y="-37" width="245" height="241">
<path d="M-35.6506 66.8247L109.067 -36.079L208.069 100.451L63.3522 203.355L-35.6506 66.8247Z" fill="white"/>
</mask>
<g mask="url(#mask44_1585_706)">
<path d="M148.029 21.5569C150.618 23.91 153.339 26.8157 153.189 27.6352C151.546 28.6038 137.445 14.2554 137.407 14.0505C137.47 14.0381 137.545 14.0195 137.608 14.007C138.994 14.4665 143.627 17.5584 148.029 21.5569Z" fill="#22D36B"/>
</g>
</g>
</g>
<mask id="mask45_1585_706" style="mask-type:luminance" maskUnits="userSpaceOnUse" x="9" y="28" width="14" height="20">
<path d="M9.63086 28.6098H22.4718V47.6831H9.63086V28.6098Z" fill="white"/>
</mask>
<g mask="url(#mask45_1585_706)">
<mask id="mask46_1585_706" style="mask-type:luminance" maskUnits="userSpaceOnUse" x="-36" y="-37" width="245" height="241">
<path d="M-35.6511 66.8246L109.066 -36.0791L208.069 100.451L63.3517 203.355L-35.6511 66.8246Z" fill="white"/>
</mask>
<g mask="url(#mask46_1585_706)">
<mask id="mask47_1585_706" style="mask-type:luminance" maskUnits="userSpaceOnUse" x="-36" y="-37" width="245" height="241">
<path d="M-35.6511 66.8246L109.066 -36.0791L208.069 100.451L63.3517 203.355L-35.6511 66.8246Z" fill="white"/>
</mask>
<g mask="url(#mask47_1585_706)">
<path d="M16.7092 37.8732C11.3421 45.8328 10.6336 46.3978 10.3703 46.6089L10.2825 46.5344C10.3577 46.2922 10.4392 46.0625 10.8907 45.2306L10.9157 45.1933C15.5806 37.4075 15.5806 37.4075 18.3707 33.7816L21.3302 30.1433C21.9195 29.4603 22.07 29.33 22.2518 29.1872L22.3083 29.2493C22.1766 29.5597 21.9634 30.0812 16.7092 37.8732Z" fill="#22D36B"/>
</g>
</g>
</g>
<mask id="mask48_1585_706" style="mask-type:luminance" maskUnits="userSpaceOnUse" x="16" y="27" width="15" height="20">
<path d="M16.0513 27.0203H30.4973V46.0935H16.0513V27.0203Z" fill="white"/>
</mask>
<g mask="url(#mask48_1585_706)">
<mask id="mask49_1585_706" style="mask-type:luminance" maskUnits="userSpaceOnUse" x="-36" y="-37" width="245" height="241">
<path d="M-35.6511 66.8245L109.066 -36.0793L208.069 100.451L63.3517 203.355L-35.6511 66.8245Z" fill="white"/>
</mask>
<g mask="url(#mask49_1585_706)">
<mask id="mask50_1585_706" style="mask-type:luminance" maskUnits="userSpaceOnUse" x="-36" y="-37" width="245" height="241">
<path d="M-35.6511 66.8245L109.066 -36.0793L208.069 100.451L63.3517 203.355L-35.6511 66.8245Z" fill="white"/>
</mask>
<g mask="url(#mask50_1585_706)">
<path d="M27.3367 36.5133C23.3177 42.927 17.7625 46.9937 16.9097 44.1439C15.7749 40.3441 24.3961 28.771 29.0547 27.8459C31.7633 27.8335 29.4372 33.1544 27.3367 36.5133Z" fill="#22D36B"/>
</g>
</g>
</g>
<mask id="mask51_1585_706" style="mask-type:luminance" maskUnits="userSpaceOnUse" x="30" y="25" width="19" height="20">
<path d="M30.4973 25.431H48.1536V44.5042H30.4973V25.431Z" fill="white"/>
</mask>
<g mask="url(#mask51_1585_706)">
<mask id="mask52_1585_706" style="mask-type:luminance" maskUnits="userSpaceOnUse" x="-36" y="-37" width="245" height="241">
<path d="M-35.6511 66.8246L109.066 -36.0791L208.069 100.451L63.3517 203.355L-35.6511 66.8246Z" fill="white"/>
</mask>
<g mask="url(#mask52_1585_706)">
<mask id="mask53_1585_706" style="mask-type:luminance" maskUnits="userSpaceOnUse" x="-36" y="-37" width="245" height="241">
<path d="M-35.6511 66.8246L109.066 -36.0791L208.069 100.451L63.3517 203.355L-35.6511 66.8246Z" fill="white"/>
</mask>
<g mask="url(#mask53_1585_706)">
<path d="M46.7364 35.607C43.1249 42.8899 33.5193 46.6462 31.8389 41.4246C30.3216 36.7308 37.0994 27.5357 43.9964 26.8651C48.8243 26.9707 48.5045 32.037 46.7364 35.607Z" fill="#22D36B"/>
</g>
</g>
</g>
<mask id="mask54_1585_706" style="mask-type:luminance" maskUnits="userSpaceOnUse" x="52" y="25" width="22" height="20">
<path d="M52.9685 25.431H73.835V44.5042H52.9685V25.431Z" fill="white"/>
</mask>
<g mask="url(#mask54_1585_706)">
<mask id="mask55_1585_706" style="mask-type:luminance" maskUnits="userSpaceOnUse" x="-36" y="-37" width="245" height="241">
<path d="M-35.6511 66.8246L109.066 -36.0791L208.069 100.451L63.3517 203.355L-35.6511 66.8246Z" fill="white"/>
</mask>
<g mask="url(#mask55_1585_706)">
<mask id="mask56_1585_706" style="mask-type:luminance" maskUnits="userSpaceOnUse" x="-36" y="-37" width="245" height="241">
<path d="M-35.6511 66.8246L109.066 -36.0791L208.069 100.451L63.3517 203.355L-35.6511 66.8246Z" fill="white"/>
</mask>
<g mask="url(#mask56_1585_706)">
<path d="M72.2862 35.3277C70.1105 43.0079 58.5048 46.2178 55.0375 40.1022C52.2537 35.1911 57.6772 26.8404 65.872 26.3995C72.305 26.6727 73.2204 32.0184 72.2862 35.3277Z" fill="#22D36B"/>
</g>
</g>
</g>
<mask id="mask57_1585_706" style="mask-type:luminance" maskUnits="userSpaceOnUse" x="80" y="25" width="20" height="20">
<path d="M80.2561 25.431H99.5175V44.5042H80.2561V25.431Z" fill="white"/>
</mask>
<g mask="url(#mask57_1585_706)">
<mask id="mask58_1585_706" style="mask-type:luminance" maskUnits="userSpaceOnUse" x="-36" y="-37" width="245" height="241">
<path d="M-35.6511 66.8246L109.066 -36.0791L208.069 100.451L63.3517 203.355L-35.6511 66.8246Z" fill="white"/>
</mask>
<g mask="url(#mask58_1585_706)">
<mask id="mask59_1585_706" style="mask-type:luminance" maskUnits="userSpaceOnUse" x="-36" y="-37" width="245" height="241">
<path d="M-35.6511 66.8246L109.066 -36.0791L208.069 100.451L63.3517 203.355L-35.6511 66.8246Z" fill="white"/>
</mask>
<g mask="url(#mask59_1585_706)">
<path d="M99.2222 35.7002C98.8961 43.132 88.6322 46.3295 83.0707 40.7355C78.1739 35.8119 81.4719 26.7968 90.1683 26.5485C96.6703 26.9645 99.3789 32.1488 99.2222 35.7002Z" fill="#22D36B"/>
</g>
</g>
</g>
<mask id="mask60_1585_706" style="mask-type:luminance" maskUnits="userSpaceOnUse" x="105" y="27" width="21" height="18">
<path d="M105.937 27.0203H125.199V44.5041H105.937V27.0203Z" fill="white"/>
</mask>
<g mask="url(#mask60_1585_706)">
<mask id="mask61_1585_706" style="mask-type:luminance" maskUnits="userSpaceOnUse" x="-36" y="-37" width="245" height="241">
<path d="M-35.6511 66.8245L109.066 -36.0793L208.069 100.451L63.3517 203.355L-35.6511 66.8245Z" fill="white"/>
</mask>
<g mask="url(#mask61_1585_706)">
<mask id="mask62_1585_706" style="mask-type:luminance" maskUnits="userSpaceOnUse" x="-36" y="-37" width="245" height="241">
<path d="M-35.6511 66.8245L109.066 -36.0793L208.069 100.451L63.3517 203.355L-35.6511 66.8245Z" fill="white"/>
</mask>
<g mask="url(#mask62_1585_706)">
<path d="M124.804 36.65C126.083 43.2809 118.929 46.6957 112.465 42.5421C105.104 37.8235 106.22 28.3986 112.54 27.3307C112.997 27.25 113.618 27.2438 114.088 27.2375C120.333 27.7963 124.114 33.08 124.804 36.65Z" fill="#22D36B"/>
</g>
</g>
</g>
<mask id="mask63_1585_706" style="mask-type:luminance" maskUnits="userSpaceOnUse" x="130" y="27" width="18" height="20">
<path d="M130.015 27.0203H147.671V46.0935H130.015V27.0203Z" fill="white"/>
</mask>
<g mask="url(#mask63_1585_706)">
<mask id="mask64_1585_706" style="mask-type:luminance" maskUnits="userSpaceOnUse" x="-36" y="-37" width="245" height="241">
<path d="M-35.6506 66.8245L109.067 -36.0793L208.069 100.451L63.3522 203.355L-35.6506 66.8245Z" fill="white"/>
</mask>
<g mask="url(#mask64_1585_706)">
<mask id="mask65_1585_706" style="mask-type:luminance" maskUnits="userSpaceOnUse" x="-36" y="-37" width="245" height="241">
<path d="M-35.6506 66.8245L109.067 -36.0793L208.069 100.451L63.3522 203.355L-35.6506 66.8245Z" fill="white"/>
</mask>
<g mask="url(#mask65_1585_706)">
<path d="M146.31 38.0842C148.536 43.6535 145.42 47.1924 140.128 45.1001C132.059 41.9026 128.485 30.4226 133.388 28.6097C134.002 28.3862 134.642 28.3924 135.15 28.3986C140.391 29.0815 144.906 34.5825 146.31 38.0842Z" fill="#22D36B"/>
</g>
</g>
</g>
<mask id="mask66_1585_706" style="mask-type:luminance" maskUnits="userSpaceOnUse" x="147" y="28" width="17" height="20">
<path d="M147.67 28.6098H163.721V47.6831H147.67V28.6098Z" fill="white"/>
</mask>
<g mask="url(#mask66_1585_706)">
<mask id="mask67_1585_706" style="mask-type:luminance" maskUnits="userSpaceOnUse" x="-36" y="-37" width="245" height="241">
<path d="M-35.6511 66.8246L109.066 -36.0791L208.069 100.451L63.3517 203.355L-35.6511 66.8246Z" fill="white"/>
</mask>
<g mask="url(#mask67_1585_706)">
<mask id="mask68_1585_706" style="mask-type:luminance" maskUnits="userSpaceOnUse" x="-36" y="-37" width="245" height="241">
<path d="M-35.6511 66.8246L109.066 -36.0791L208.069 100.451L63.3517 203.355L-35.6511 66.8246Z" fill="white"/>
</mask>
<g mask="url(#mask68_1585_706)">
<path d="M160.599 39.86C163.345 44.8084 163.232 48.248 160.354 47.3664C155 45.7397 146.46 31.2796 150.084 29.9881C150.285 29.9136 150.579 29.9323 150.793 29.9385C154.191 30.7083 158.574 36.2031 160.599 39.86Z" fill="#22D36B"/>
</g>
</g>
</g>
<mask id="mask69_1585_706" style="mask-type:luminance" maskUnits="userSpaceOnUse" x="157" y="30" width="14" height="21">
<path d="M157.302 30.1993H170.142V50.862H157.302V30.1993Z" fill="white"/>
</mask>
<g mask="url(#mask69_1585_706)">
<mask id="mask70_1585_706" style="mask-type:luminance" maskUnits="userSpaceOnUse" x="-36" y="-37" width="245" height="241">
<path d="M-35.6506 66.8246L109.067 -36.0791L208.069 100.451L63.3522 203.355L-35.6506 66.8246Z" fill="white"/>
</mask>
<g mask="url(#mask70_1585_706)">
<mask id="mask71_1585_706" style="mask-type:luminance" maskUnits="userSpaceOnUse" x="-36" y="-37" width="245" height="241">
<path d="M-35.6506 66.8246L109.067 -36.0791L208.069 100.451L63.3522 203.355L-35.6506 66.8246Z" fill="white"/>
</mask>
<g mask="url(#mask71_1585_706)">
<path d="M168.819 48.5275C169.045 49.0056 169.089 49.1608 169.133 49.316L169.051 49.3843C167.822 48.2978 158.254 32.9622 157.74 31.6149L157.797 31.559C157.985 31.7204 158.06 31.8011 158.537 32.3848L161.477 36.259C166.468 43.8399 166.468 43.8399 168.525 47.9253L168.656 48.1922C168.706 48.2916 168.775 48.4282 168.819 48.5275Z" fill="#22D36B"/>
</g>
</g>
</g>
<mask id="mask72_1585_706" style="mask-type:luminance" maskUnits="userSpaceOnUse" x="3" y="47" width="12" height="23">
<path d="M3.21045 47.6831H14.4462V69.9352H3.21045V47.6831Z" fill="white"/>
</mask>
<g mask="url(#mask72_1585_706)">
<mask id="mask73_1585_706" style="mask-type:luminance" maskUnits="userSpaceOnUse" x="-36" y="-37" width="245" height="241">
<path d="M-35.6511 66.8246L109.066 -36.0791L208.069 100.451L63.3517 203.355L-35.6511 66.8246Z" fill="white"/>
</mask>
<g mask="url(#mask73_1585_706)">
<mask id="mask74_1585_706" style="mask-type:luminance" maskUnits="userSpaceOnUse" x="-36" y="-37" width="245" height="241">
<path d="M-35.6511 66.8246L109.066 -36.0791L208.069 100.451L63.3517 203.355L-35.6511 66.8246Z" fill="white"/>
</mask>
<g mask="url(#mask74_1585_706)">
<path d="M11.2544 58.654C8.89062 65.6947 5.46722 70.4257 4.47029 68.0354C3.07209 64.6702 8.10688 49.6078 11.919 48.2729C13.9881 48.2233 12.6087 54.6121 11.2544 58.654Z" fill="#22D36B"/>
</g>
</g>
</g>
<mask id="mask75_1585_706" style="mask-type:luminance" maskUnits="userSpaceOnUse" x="14" y="46" width="17" height="23">
<path d="M14.4463 46.0937H30.4974V68.3459H14.4463V46.0937Z" fill="white"/>
</mask>
<g mask="url(#mask75_1585_706)">
<mask id="mask76_1585_706" style="mask-type:luminance" maskUnits="userSpaceOnUse" x="-36" y="-37" width="245" height="241">
<path d="M-35.6506 66.8246L109.067 -36.0791L208.069 100.451L63.3522 203.355L-35.6506 66.8246Z" fill="white"/>
</mask>
<g mask="url(#mask76_1585_706)">
<mask id="mask77_1585_706" style="mask-type:luminance" maskUnits="userSpaceOnUse" x="-36" y="-37" width="245" height="241">
<path d="M-35.6506 66.8246L109.067 -36.0791L208.069 100.451L63.3522 203.355L-35.6506 66.8246Z" fill="white"/>
</mask>
<g mask="url(#mask77_1585_706)">
<path d="M28.3596 57.344C25.7952 65.6264 18.4593 70.1216 15.9012 64.9869C13.2803 59.7095 18.3151 47.8073 24.9174 46.8698C29.5195 46.9319 29.7014 53.0351 28.3596 57.344Z" fill="#22D36B"/>
</g>
</g>
</g>
<mask id="mask78_1585_706" style="mask-type:luminance" maskUnits="userSpaceOnUse" x="35" y="44" width="22" height="23">
<path d="M35.3125 44.5042H56.179V66.7563H35.3125V44.5042Z" fill="white"/>
</mask>
<g mask="url(#mask78_1585_706)">
<mask id="mask79_1585_706" style="mask-type:luminance" maskUnits="userSpaceOnUse" x="-36" y="-37" width="245" height="241">
<path d="M-35.6511 66.8246L109.066 -36.0791L208.069 100.451L63.3517 203.355L-35.6511 66.8246Z" fill="white"/>
</mask>
<g mask="url(#mask79_1585_706)">
<mask id="mask80_1585_706" style="mask-type:luminance" maskUnits="userSpaceOnUse" x="-36" y="-37" width="245" height="241">
<path d="M-35.6511 66.8246L109.066 -36.0791L208.069 100.451L63.3517 203.355L-35.6511 66.8246Z" fill="white"/>
</mask>
<g mask="url(#mask80_1585_706)">
<path d="M54.6611 56.6485C52.4541 65.7629 40.7355 69.5937 36.7478 62.5095C33.3808 56.5367 38.4407 46.6338 47.2688 45.9881C54.473 46.2178 55.6267 52.6501 54.6611 56.6485Z" fill="#22D36B"/>
</g>
</g>
</g>
<mask id="mask81_1585_706" style="mask-type:luminance" maskUnits="userSpaceOnUse" x="62" y="44" width="24" height="23">
<path d="M62.5994 44.5042H85.0709V66.7563H62.5994V44.5042Z" fill="white"/>
</mask>
<g mask="url(#mask81_1585_706)">
<mask id="mask82_1585_706" style="mask-type:luminance" maskUnits="userSpaceOnUse" x="-36" y="-37" width="245" height="241">
<path d="M-35.6511 66.8246L109.066 -36.0791L208.069 100.451L63.3517 203.355L-35.6511 66.8246Z" fill="white"/>
</mask>
<g mask="url(#mask82_1585_706)">
<mask id="mask83_1585_706" style="mask-type:luminance" maskUnits="userSpaceOnUse" x="-36" y="-37" width="245" height="241">
<path d="M-35.6511 66.8246L109.066 -36.0791L208.069 100.451L63.3517 203.355L-35.6511 66.8246Z" fill="white"/>
</mask>
<g mask="url(#mask83_1585_706)">
<path d="M84.8204 56.7169C83.5287 65.9307 71.2647 69.4013 65.7973 62.0999C61.3393 56.1519 65.7283 46.1993 75.2775 45.8019C82.8579 46.2179 85.416 52.4328 84.8204 56.7169Z" fill="#22D36B"/>
</g>
</g>
</g>
<mask id="mask84_1585_706" style="mask-type:luminance" maskUnits="userSpaceOnUse" x="123" y="46" width="20" height="23">
<path d="M123.594 46.0937H142.855V68.3459H123.594V46.0937Z" fill="white"/>
</mask>
<g mask="url(#mask84_1585_706)">
<mask id="mask85_1585_706" style="mask-type:luminance" maskUnits="userSpaceOnUse" x="-36" y="-37" width="245" height="241">
<path d="M-35.6511 66.8246L109.066 -36.0791L208.069 100.451L63.3517 203.355L-35.6511 66.8246Z" fill="white"/>
</mask>
<g mask="url(#mask85_1585_706)">
<mask id="mask86_1585_706" style="mask-type:luminance" maskUnits="userSpaceOnUse" x="-36" y="-37" width="245" height="241">
<path d="M-35.6511 66.8246L109.066 -36.0791L208.069 100.451L63.3517 203.355L-35.6511 66.8246Z" fill="white"/>
</mask>
<g mask="url(#mask86_1585_706)">
<path d="M142.065 58.8402C142.779 67.1165 134.559 70.7299 128.108 64.9744C121.261 58.8712 122.766 47.8756 130.509 47.4223C130.772 47.4037 131.123 47.4223 131.387 47.4223C138.14 48.1612 141.701 54.5438 142.065 58.8402Z" fill="#22D36B"/>
</g>
</g>
</g>
<mask id="mask87_1585_706" style="mask-type:luminance" maskUnits="userSpaceOnUse" x="0" y="73" width="4" height="24">
<path d="M0 73.114H3.21023V96.9556H0V73.114Z" fill="white"/>
</mask>
<g mask="url(#mask87_1585_706)">
<mask id="mask88_1585_706" style="mask-type:luminance" maskUnits="userSpaceOnUse" x="-36" y="-37" width="245" height="241">
<path d="M-35.6511 66.8246L109.066 -36.0791L208.069 100.451L63.3517 203.355L-35.6511 66.8246Z" fill="white"/>
</mask>
<g mask="url(#mask88_1585_706)">
<mask id="mask89_1585_706" style="mask-type:luminance" maskUnits="userSpaceOnUse" x="-36" y="-37" width="245" height="241">
<path d="M-35.6511 66.8246L109.066 -36.0791L208.069 100.451L63.3517 203.355L-35.6511 66.8246Z" fill="white"/>
</mask>
<g mask="url(#mask89_1585_706)">
<path d="M2.52071 85.4446C2.41412 89.3748 2.00657 96.0492 1.13504 96.1237C0.846625 95.8629 0.533124 95.0558 0.319946 91.0015L0.250977 85.4819L0.620905 78.7827C1.05353 74.3869 1.46735 73.9523 1.64291 73.766L1.76204 73.7536C2.58341 74.5235 2.6273 81.4648 2.52071 85.4446Z" fill="#22D36B"/>
</g>
</g>
</g>
<mask id="mask90_1585_706" style="mask-type:luminance" maskUnits="userSpaceOnUse" x="4" y="71" width="13" height="25">
<path d="M4.81543 71.5247H16.0512V95.3662H4.81543V71.5247Z" fill="white"/>
</mask>
<g mask="url(#mask90_1585_706)">
<mask id="mask91_1585_706" style="mask-type:luminance" maskUnits="userSpaceOnUse" x="-36" y="-37" width="245" height="241">
<path d="M-35.6511 66.8246L109.066 -36.0791L208.069 100.451L63.3517 203.355L-35.6511 66.8246Z" fill="white"/>
</mask>
<g mask="url(#mask91_1585_706)">
<mask id="mask92_1585_706" style="mask-type:luminance" maskUnits="userSpaceOnUse" x="-36" y="-37" width="245" height="241">
<path d="M-35.6511 66.8246L109.066 -36.0791L208.069 100.451L63.3517 203.355L-35.6511 66.8246Z" fill="white"/>
</mask>
<g mask="url(#mask92_1585_706)">
<path d="M15.0856 83.8366C14.5965 91.7589 10.753 96.7135 7.73719 93.2987C3.7056 88.7477 4.77149 73.2817 10.4395 72.0276C14.1451 72.0524 15.3866 78.9441 15.0856 83.8366Z" fill="#22D36B"/>
</g>
</g>
</g>
<mask id="mask93_1585_706" style="mask-type:luminance" maskUnits="userSpaceOnUse" x="20" y="69" width="19" height="25">
<path d="M20.8665 69.9352H38.5227V93.7767H20.8665V69.9352Z" fill="white"/>
</mask>
<g mask="url(#mask93_1585_706)">
<mask id="mask94_1585_706" style="mask-type:luminance" maskUnits="userSpaceOnUse" x="-36" y="-37" width="245" height="241">
<path d="M-35.6511 66.8246L109.066 -36.0791L208.069 100.451L63.3517 203.355L-35.6511 66.8246Z" fill="white"/>
</mask>
<g mask="url(#mask94_1585_706)">
<mask id="mask95_1585_706" style="mask-type:luminance" maskUnits="userSpaceOnUse" x="-36" y="-37" width="245" height="241">
<path d="M-35.6511 66.8246L109.066 -36.0791L208.069 100.451L63.3517 203.355L-35.6511 66.8246Z" fill="white"/>
</mask>
<g mask="url(#mask95_1585_706)">
<path d="M38.0275 82.7625C37.1371 92.0135 28.3278 96.4776 23.5187 90.1136C18.7849 83.849 21.6001 71.624 29.7448 70.761C36.2342 70.9348 38.4914 77.8824 38.0275 82.7625Z" fill="#22D36B"/>
</g>
</g>
</g>
<mask id="mask96_1585_706" style="mask-type:luminance" maskUnits="userSpaceOnUse" x="46" y="69" width="24" height="25">
<path d="M46.5483 69.9352H69.0199V93.7767H46.5483V69.9352Z" fill="white"/>
</mask>
<g mask="url(#mask96_1585_706)">
<mask id="mask97_1585_706" style="mask-type:luminance" maskUnits="userSpaceOnUse" x="-36" y="-37" width="245" height="241">
<path d="M-35.6511 66.8246L109.066 -36.0791L208.069 100.451L63.3517 203.355L-35.6511 66.8246Z" fill="white"/>
</mask>
<g mask="url(#mask97_1585_706)">
<mask id="mask98_1585_706" style="mask-type:luminance" maskUnits="userSpaceOnUse" x="-36" y="-37" width="245" height="241">
<path d="M-35.6511 66.8246L109.066 -36.0791L208.069 100.451L63.3517 203.355L-35.6511 66.8246Z" fill="white"/>
</mask>
<g mask="url(#mask98_1585_706)">
<path d="M68.2358 82.4334C67.1386 92.237 55.4012 96.0616 49.4886 88.5428C44.3096 81.9553 48.0465 70.7485 58.0158 70.1649C66.4175 70.5498 68.7437 77.8948 68.2358 82.4334Z" fill="#22D36B"/>
</g>
</g>
</g>
<mask id="mask99_1585_706" style="mask-type:luminance" maskUnits="userSpaceOnUse" x="77" y="69" width="25" height="25">
<path d="M77.0457 69.9352H101.122V93.7767H77.0457V69.9352Z" fill="white"/>
</mask>
<g mask="url(#mask99_1585_706)">
<mask id="mask100_1585_706" style="mask-type:luminance" maskUnits="userSpaceOnUse" x="-36" y="-37" width="245" height="241">
<path d="M-35.6511 66.8246L109.066 -36.0791L208.069 100.451L63.3517 203.355L-35.6511 66.8246Z" fill="white"/>
</mask>
<g mask="url(#mask100_1585_706)">
<mask id="mask101_1585_706" style="mask-type:luminance" maskUnits="userSpaceOnUse" x="-36" y="-37" width="245" height="241">
<path d="M-35.6511 66.8246L109.066 -36.0791L208.069 100.451L63.3517 203.355L-35.6511 66.8246Z" fill="white"/>
</mask>
<g mask="url(#mask101_1585_706)">
<path d="M100.081 82.8743C98.9334 92.7214 86.7572 96.2666 80.6377 88.5305C75.3207 81.8064 79.1768 70.6928 89.4156 70.3513C98.181 70.9536 100.614 78.3544 100.081 82.8743Z" fill="#22D36B"/>
</g>
</g>
</g>
<mask id="mask102_1585_706" style="mask-type:luminance" maskUnits="userSpaceOnUse" x="3" y="100" width="10" height="23">
<path d="M3.21045 100.134H12.8411V122.387H3.21045V100.134Z" fill="white"/>
</mask>
<g mask="url(#mask102_1585_706)">
<mask id="mask103_1585_706" style="mask-type:luminance" maskUnits="userSpaceOnUse" x="-36" y="-37" width="245" height="241">
<path d="M-35.6511 66.8246L109.066 -36.0791L208.069 100.451L63.3517 203.355L-35.6511 66.8246Z" fill="white"/>
</mask>
<g mask="url(#mask103_1585_706)">
<mask id="mask104_1585_706" style="mask-type:luminance" maskUnits="userSpaceOnUse" x="-36" y="-37" width="245" height="241">
<path d="M-35.6511 66.8246L109.066 -36.0791L208.069 100.451L63.3517 203.355L-35.6511 66.8246Z" fill="white"/>
</mask>
<g mask="url(#mask104_1585_706)">
<path d="M11.4426 112.335C12.9098 118.016 12.8346 123.225 10.3767 121.617C6.63356 119.164 1.39813 102.755 5.13504 101.252C7.49882 101.221 10.2451 107.715 11.4426 112.335Z" fill="#22D36B"/>
</g>
</g>
</g>
<mask id="mask105_1585_706" style="mask-type:luminance" maskUnits="userSpaceOnUse" x="14" y="98" width="15" height="23">
<path d="M14.4463 98.5451H28.8923V120.797H14.4463V98.5451Z" fill="white"/>
</mask>
<g mask="url(#mask105_1585_706)">
<mask id="mask106_1585_706" style="mask-type:luminance" maskUnits="userSpaceOnUse" x="-36" y="-37" width="245" height="241">
<path d="M-35.6506 66.8246L109.067 -36.0791L208.069 100.451L63.3522 203.355L-35.6506 66.8246Z" fill="white"/>
</mask>
<g mask="url(#mask106_1585_706)">
<mask id="mask107_1585_706" style="mask-type:luminance" maskUnits="userSpaceOnUse" x="-36" y="-37" width="245" height="241">
<path d="M-35.6506 66.8246L109.067 -36.0791L208.069 100.451L63.3522 203.355L-35.6506 66.8246Z" fill="white"/>
</mask>
<g mask="url(#mask107_1585_706)">
<path d="M28.2965 111.043C29.4188 118.221 25.6694 122.573 21.017 119.506C14.2956 115.085 12.4961 101.302 18.4526 99.849C18.647 99.7993 18.9103 99.7745 19.111 99.7497C24.2461 99.8366 27.5754 106.405 28.2965 111.043Z" fill="#22D36B"/>
</g>
</g>
</g>
<mask id="mask108_1585_706" style="mask-type:luminance" maskUnits="userSpaceOnUse" x="33" y="98" width="22" height="23">
<path d="M33.7078 98.5451H54.5742V120.797H33.7078V98.5451Z" fill="white"/>
</mask>
<g mask="url(#mask108_1585_706)">
<mask id="mask109_1585_706" style="mask-type:luminance" maskUnits="userSpaceOnUse" x="-36" y="-37" width="245" height="241">
<path d="M-35.6506 66.8246L109.067 -36.0791L208.069 100.451L63.3522 203.355L-35.6506 66.8246Z" fill="white"/>
</mask>
<g mask="url(#mask109_1585_706)">
<mask id="mask110_1585_706" style="mask-type:luminance" maskUnits="userSpaceOnUse" x="-36" y="-37" width="245" height="241">
<path d="M-35.6506 66.8246L109.067 -36.0791L208.069 100.451L63.3522 203.355L-35.6506 66.8246Z" fill="white"/>
</mask>
<g mask="url(#mask110_1585_706)">
<path d="M54.211 110.36C54.4367 118.866 45.8719 122.629 39.4264 116.861C33.401 111.459 33.2567 99.5694 43.1382 98.7933C50.5744 99.0541 54.0919 105.716 54.211 110.36Z" fill="#22D36B"/>
</g>
</g>
</g>
<mask id="mask111_1585_706" style="mask-type:luminance" maskUnits="userSpaceOnUse" x="62" y="98" width="24" height="23">
<path d="M62.5994 98.5451H85.0709V120.797H62.5994V98.5451Z" fill="white"/>
</mask>
<g mask="url(#mask111_1585_706)">
<mask id="mask112_1585_706" style="mask-type:luminance" maskUnits="userSpaceOnUse" x="-36" y="-37" width="245" height="241">
<path d="M-35.6511 66.8246L109.066 -36.0791L208.069 100.451L63.3517 203.355L-35.6511 66.8246Z" fill="white"/>
</mask>
<g mask="url(#mask112_1585_706)">
<mask id="mask113_1585_706" style="mask-type:luminance" maskUnits="userSpaceOnUse" x="-36" y="-37" width="245" height="241">
<path d="M-35.6511 66.8246L109.066 -36.0791L208.069 100.451L63.3517 203.355L-35.6511 66.8246Z" fill="white"/>
</mask>
<g mask="url(#mask113_1585_706)">
<path d="M83.936 110.429C82.9767 119.953 71.4337 122.815 65.5023 114.992C60.6368 108.591 63.8282 99.0294 73.252 98.5948C81.3904 99.0667 84.4 105.797 83.936 110.429Z" fill="#22D36B"/>
</g>
</g>
</g>
<mask id="mask114_1585_706" style="mask-type:luminance" maskUnits="userSpaceOnUse" x="9" y="125" width="14" height="20">
<path d="M9.63086 125.566H22.4718V144.639H9.63086V125.566Z" fill="white"/>
</mask>
<g mask="url(#mask114_1585_706)">
<mask id="mask115_1585_706" style="mask-type:luminance" maskUnits="userSpaceOnUse" x="-36" y="-37" width="245" height="241">
<path d="M-35.6511 66.8247L109.066 -36.079L208.069 100.451L63.3517 203.355L-35.6511 66.8247Z" fill="white"/>
</mask>
<g mask="url(#mask115_1585_706)">
<mask id="mask116_1585_706" style="mask-type:luminance" maskUnits="userSpaceOnUse" x="-36" y="-37" width="245" height="241">
<path d="M-35.6511 66.8247L109.066 -36.079L208.069 100.451L63.3517 203.355L-35.6511 66.8247Z" fill="white"/>
</mask>
<g mask="url(#mask116_1585_706)">
<path d="M17.8693 135.978C21.0419 140.864 22.5153 143.565 22.2457 144C20.3898 144.149 9.41737 127.913 10.3767 126.46C11.5617 126.367 16.8285 134.37 17.8693 135.978Z" fill="#22D36B"/>
</g>
</g>
</g>
<mask id="mask117_1585_706" style="mask-type:luminance" maskUnits="userSpaceOnUse" x="16" y="123" width="15" height="21">
<path d="M16.0513 123.976H30.4973V143.049H16.0513V123.976Z" fill="white"/>
</mask>
<g mask="url(#mask117_1585_706)">
<mask id="mask118_1585_706" style="mask-type:luminance" maskUnits="userSpaceOnUse" x="-36" y="-37" width="245" height="241">
<path d="M-35.6511 66.8246L109.066 -36.0791L208.069 100.451L63.3517 203.355L-35.6511 66.8246Z" fill="white"/>
</mask>
<g mask="url(#mask118_1585_706)">
<mask id="mask119_1585_706" style="mask-type:luminance" maskUnits="userSpaceOnUse" x="-36" y="-37" width="245" height="241">
<path d="M-35.6511 66.8246L109.066 -36.0791L208.069 100.451L63.3517 203.355L-35.6511 66.8246Z" fill="white"/>
</mask>
<g mask="url(#mask119_1585_706)">
<path d="M28.0767 134.668C30.3716 139.181 30.9735 143.385 27.9952 142.615C22.3962 141.162 14.2076 127.652 17.4366 125.199C17.631 125.056 17.9633 124.969 18.2015 124.914C21.393 124.926 25.6691 129.949 28.0767 134.668Z" fill="#22D36B"/>
</g>
</g>
</g>
<mask id="mask120_1585_706" style="mask-type:luminance" maskUnits="userSpaceOnUse" x="30" y="122" width="19" height="22">
<path d="M30.4973 122.387H48.1536V143.049H30.4973V122.387Z" fill="white"/>
</mask>
<g mask="url(#mask120_1585_706)">
<mask id="mask121_1585_706" style="mask-type:luminance" maskUnits="userSpaceOnUse" x="-36" y="-37" width="245" height="241">
<path d="M-35.6511 66.8246L109.066 -36.0791L208.069 100.451L63.3517 203.355L-35.6511 66.8246Z" fill="white"/>
</mask>
<g mask="url(#mask121_1585_706)">
<mask id="mask122_1585_706" style="mask-type:luminance" maskUnits="userSpaceOnUse" x="-36" y="-37" width="245" height="241">
<path d="M-35.6511 66.8246L109.066 -36.0791L208.069 100.451L63.3517 203.355L-35.6511 66.8246Z" fill="white"/>
</mask>
<g mask="url(#mask122_1585_706)">
<path d="M46.7052 133.798C48.442 139.697 45.213 144.024 39.1123 140.479C31.2372 135.903 28.3154 125.032 34.6418 123.864C34.8613 123.827 35.156 123.808 35.3754 123.784C41.2065 123.933 45.5077 129.725 46.7052 133.798Z" fill="#22D36B"/>
</g>
</g>
</g>
<mask id="mask123_1585_706" style="mask-type:luminance" maskUnits="userSpaceOnUse" x="25" y="144" width="19" height="17">
<path d="M25.6819 144.639H43.3381V160.533H25.6819V144.639Z" fill="white"/>
</mask>
<g mask="url(#mask123_1585_706)">
<mask id="mask124_1585_706" style="mask-type:luminance" maskUnits="userSpaceOnUse" x="-36" y="-37" width="245" height="241">
<path d="M-35.6511 66.8246L109.066 -36.0791L208.069 100.451L63.3517 203.355L-35.6511 66.8246Z" fill="white"/>
</mask>
<g mask="url(#mask124_1585_706)">
<mask id="mask125_1585_706" style="mask-type:luminance" maskUnits="userSpaceOnUse" x="-36" y="-37" width="245" height="241">
<path d="M-35.6511 66.8246L109.066 -36.0791L208.069 100.451L63.3517 203.355L-35.6511 66.8246Z" fill="white"/>
</mask>
<g mask="url(#mask125_1585_706)">
<path d="M37.1495 153.53C41.2375 157.41 42.9618 159.465 42.2783 159.633C39.4757 160.316 24.7036 147.47 26.478 145.887C26.5219 145.849 26.6034 145.825 26.6598 145.8C28.7603 145.769 34.6979 151.195 37.1495 153.53Z" fill="#22D36B"/>
</g>
</g>
</g>
<mask id="mask126_1585_706" style="mask-type:luminance" maskUnits="userSpaceOnUse" x="35" y="144" width="17" height="15">
<path d="M35.3125 144.639H51.3636V158.944H35.3125V144.639Z" fill="white"/>
</mask>
<g mask="url(#mask126_1585_706)">
<mask id="mask127_1585_706" style="mask-type:luminance" maskUnits="userSpaceOnUse" x="-36" y="-37" width="245" height="241">
<path d="M-35.6511 66.8246L109.066 -36.0791L208.069 100.451L63.3517 203.355L-35.6511 66.8246Z" fill="white"/>
</mask>
<g mask="url(#mask127_1585_706)">
<mask id="mask128_1585_706" style="mask-type:luminance" maskUnits="userSpaceOnUse" x="-36" y="-37" width="245" height="241">
<path d="M-35.6511 66.8246L109.066 -36.0791L208.069 100.451L63.3517 203.355L-35.6511 66.8246Z" fill="white"/>
</mask>
<g mask="url(#mask128_1585_706)">
<path d="M48.2282 152.679C50.0528 155.069 52.3727 159.049 49.4759 158.807C44.2844 158.372 32.9169 148.122 35.776 145.148C36.0895 144.825 36.541 144.757 36.9046 144.695C40.5412 144.757 45.3252 148.879 48.2282 152.679Z" fill="#22D36B"/>
</g>
</g>
</g>
<mask id="mask129_1585_706" style="mask-type:luminance" maskUnits="userSpaceOnUse" x="49" y="143" width="19" height="16">
<path d="M49.7583 143.049H67.4145V158.944H49.7583V143.049Z" fill="white"/>
</mask>
<g mask="url(#mask129_1585_706)">
<mask id="mask130_1585_706" style="mask-type:luminance" maskUnits="userSpaceOnUse" x="-36" y="-37" width="245" height="241">
<path d="M-35.6511 66.8246L109.066 -36.0791L208.069 100.451L63.3517 203.355L-35.6511 66.8246Z" fill="white"/>
</mask>
<g mask="url(#mask130_1585_706)">
<mask id="mask131_1585_706" style="mask-type:luminance" maskUnits="userSpaceOnUse" x="-36" y="-37" width="245" height="241">
<path d="M-35.6511 66.8246L109.066 -36.0791L208.069 100.451L63.3517 203.355L-35.6511 66.8246Z" fill="white"/>
</mask>
<g mask="url(#mask131_1585_706)">
<path d="M65.2578 152.232C66.9695 156.833 64.8753 160.043 59.132 157.298C51.7334 153.753 48.0467 145.669 53.163 144.192C53.558 144.08 54.1098 144.03 54.5236 143.999C60.223 144.198 64.0665 149.028 65.2578 152.232Z" fill="#22D36B"/>
</g>
</g>
</g>
<mask id="mask132_1585_706" style="mask-type:luminance" maskUnits="userSpaceOnUse" x="70" y="143" width="16" height="16">
<path d="M70.6252 143.049H85.0713V158.944H70.6252V143.049Z" fill="white"/>
</mask>
<g mask="url(#mask132_1585_706)">
<mask id="mask133_1585_706" style="mask-type:luminance" maskUnits="userSpaceOnUse" x="-36" y="-37" width="245" height="241">
<path d="M-35.6511 66.8246L109.066 -36.0791L208.069 100.451L63.3517 203.355L-35.6511 66.8246Z" fill="white"/>
</mask>
<g mask="url(#mask133_1585_706)">
<mask id="mask134_1585_706" style="mask-type:luminance" maskUnits="userSpaceOnUse" x="-36" y="-37" width="245" height="241">
<path d="M-35.6511 66.8246L109.066 -36.0791L208.069 100.451L63.3517 203.355L-35.6511 66.8246Z" fill="white"/>
</mask>
<g mask="url(#mask134_1585_706)">
<path d="M84.7887 152.276C84.4877 158.23 77.967 160.651 72.9385 154.778C69.0636 150.264 70.1483 144.155 76.6001 143.857C81.9735 144.161 84.9831 148.376 84.7887 152.276Z" fill="#22D36B"/>
</g>
</g>
</g>
<mask id="mask135_1585_706" style="mask-type:luminance" maskUnits="userSpaceOnUse" x="46" y="160" width="22" height="12">
<path d="M46.5483 160.533H67.4148V171.659H46.5483V160.533Z" fill="white"/>
</mask>
<g mask="url(#mask135_1585_706)">
<mask id="mask136_1585_706" style="mask-type:luminance" maskUnits="userSpaceOnUse" x="-36" y="-37" width="245" height="241">
<path d="M-35.6511 66.8247L109.066 -36.079L208.069 100.451L63.3517 203.355L-35.6511 66.8247Z" fill="white"/>
</mask>
<g mask="url(#mask136_1585_706)">
<mask id="mask137_1585_706" style="mask-type:luminance" maskUnits="userSpaceOnUse" x="-36" y="-37" width="245" height="241">
<path d="M-35.6511 66.8247L109.066 -36.079L208.069 100.451L63.3517 203.355L-35.6511 66.8247Z" fill="white"/>
</mask>
<g mask="url(#mask137_1585_706)">
<path d="M60.0473 166.829C66.1229 170.213 66.1229 170.213 66.311 170.411C66.2797 170.442 66.2483 170.48 66.2233 170.511C61.7402 170.449 46.3474 162.713 48.3225 161.514C48.3726 161.483 48.4604 161.477 48.5231 161.458C50.4417 161.477 54.8934 163.954 60.0473 166.829Z" fill="#22D36B"/>
</g>
</g>
</g>
<mask id="mask138_1585_706" style="mask-type:luminance" maskUnits="userSpaceOnUse" x="56" y="160" width="17" height="12">
<path d="M56.179 160.533H72.2301V171.659H56.179V160.533Z" fill="white"/>
</mask>
<g mask="url(#mask138_1585_706)">
<mask id="mask139_1585_706" style="mask-type:luminance" maskUnits="userSpaceOnUse" x="-36" y="-37" width="245" height="241">
<path d="M-35.6511 66.8247L109.066 -36.079L208.069 100.451L63.3517 203.355L-35.6511 66.8247Z" fill="white"/>
</mask>
<g mask="url(#mask139_1585_706)">
<mask id="mask140_1585_706" style="mask-type:luminance" maskUnits="userSpaceOnUse" x="-36" y="-37" width="245" height="241">
<path d="M-35.6511 66.8247L109.066 -36.079L208.069 100.451L63.3517 203.355L-35.6511 66.8247Z" fill="white"/>
</mask>
<g mask="url(#mask140_1585_706)">
<path d="M68.5873 166.432C72.832 170.095 71.7849 170.151 71.4401 170.169C67.885 170.355 55.1256 163.265 57.1947 161.142C57.4142 160.912 57.8154 160.869 58.1164 160.831C61.9411 160.937 67.1013 165.146 68.5873 166.432Z" fill="#22D36B"/>
</g>
</g>
</g>
<mask id="mask141_1585_706" style="mask-type:luminance" maskUnits="userSpaceOnUse" x="69" y="160" width="13" height="11">
<path d="M69.0195 160.533H81.8604V170.07H69.0195V160.533Z" fill="white"/>
</mask>
<g mask="url(#mask141_1585_706)">
<mask id="mask142_1585_706" style="mask-type:luminance" maskUnits="userSpaceOnUse" x="-36" y="-37" width="245" height="241">
<path d="M-35.6511 66.8247L109.066 -36.079L208.069 100.451L63.3517 203.355L-35.6511 66.8247Z" fill="white"/>
</mask>
<g mask="url(#mask142_1585_706)">
<mask id="mask143_1585_706" style="mask-type:luminance" maskUnits="userSpaceOnUse" x="-36" y="-37" width="245" height="241">
<path d="M-35.6511 66.8247L109.066 -36.079L208.069 100.451L63.3517 203.355L-35.6511 66.8247Z" fill="white"/>
</mask>
<g mask="url(#mask143_1585_706)">
<path d="M79.8294 166.307C80.331 167.549 81.5913 171.442 76.7571 169.393C71.1267 167.009 67.7723 162.191 70.7693 160.806C71.227 160.595 71.7663 160.558 72.1613 160.533C75.9044 160.713 78.7635 163.656 79.8294 166.307Z" fill="#22D36B"/>
</g>
</g>
</g>
<mask id="mask144_1585_706" style="mask-type:luminance" maskUnits="userSpaceOnUse" x="81" y="160" width="13" height="11">
<path d="M81.8611 160.533H93.0969V170.07H81.8611V160.533Z" fill="white"/>
</mask>
<g mask="url(#mask144_1585_706)">
<mask id="mask145_1585_706" style="mask-type:luminance" maskUnits="userSpaceOnUse" x="-36" y="-37" width="245" height="241">
<path d="M-35.6511 66.8247L109.066 -36.079L208.069 100.451L63.3517 203.355L-35.6511 66.8247Z" fill="white"/>
</mask>
<g mask="url(#mask145_1585_706)">
<mask id="mask146_1585_706" style="mask-type:luminance" maskUnits="userSpaceOnUse" x="-36" y="-37" width="245" height="241">
<path d="M-35.6511 66.8247L109.066 -36.079L208.069 100.451L63.3517 203.355L-35.6511 66.8247Z" fill="white"/>
</mask>
<g mask="url(#mask146_1585_706)">
<path d="M91.6917 166.469C90.1054 170.66 85.8042 171.597 83.7413 166.786C82.5187 163.93 83.8417 160.769 87.7541 160.627C91.4973 160.893 92.6949 163.812 91.6917 166.469Z" fill="#22D36B"/>
</g>
</g>
</g>
<mask id="mask147_1585_706" style="mask-type:luminance" maskUnits="userSpaceOnUse" x="94" y="160" width="12" height="12">
<path d="M94.7017 160.533H105.937V171.659H94.7017V160.533Z" fill="white"/>
</mask>
<g mask="url(#mask147_1585_706)">
<mask id="mask148_1585_706" style="mask-type:luminance" maskUnits="userSpaceOnUse" x="-36" y="-37" width="245" height="241">
<path d="M-35.6511 66.8247L109.066 -36.079L208.069 100.451L63.3517 203.355L-35.6511 66.8247Z" fill="white"/>
</mask>
<g mask="url(#mask148_1585_706)">
<mask id="mask149_1585_706" style="mask-type:luminance" maskUnits="userSpaceOnUse" x="-36" y="-37" width="245" height="241">
<path d="M-35.6511 66.8247L109.066 -36.079L208.069 100.451L63.3517 203.355L-35.6511 66.8247Z" fill="white"/>
</mask>
<g mask="url(#mask149_1585_706)">
<path d="M102.947 166.891C101.649 168.015 94.363 172.858 94.7956 168.555C95.0966 165.556 98.4886 161.142 103.11 161.067C106.558 161.421 105.793 164.42 102.947 166.891Z" fill="#22D36B"/>
</g>
</g>
</g>
<mask id="mask150_1585_706" style="mask-type:luminance" maskUnits="userSpaceOnUse" x="102" y="160" width="17" height="12">
<path d="M102.727 160.533H118.778V171.659H102.727V160.533Z" fill="white"/>
</mask>
<g mask="url(#mask150_1585_706)">
<mask id="mask151_1585_706" style="mask-type:luminance" maskUnits="userSpaceOnUse" x="-36" y="-37" width="245" height="241">
<path d="M-35.6511 66.8247L109.066 -36.079L208.069 100.451L63.3517 203.355L-35.6511 66.8247Z" fill="white"/>
</mask>
<g mask="url(#mask151_1585_706)">
<mask id="mask152_1585_706" style="mask-type:luminance" maskUnits="userSpaceOnUse" x="-36" y="-37" width="245" height="241">
<path d="M-35.6511 66.8247L109.066 -36.079L208.069 100.451L63.3517 203.355L-35.6511 66.8247Z" fill="white"/>
</mask>
<g mask="url(#mask152_1585_706)">
<path d="M112.414 167.518C108.684 169.523 102.664 171.473 102.89 170.38C103.097 169.368 111.555 161.787 116.628 161.812C118.991 162.172 117.129 164.339 115.305 165.711C114.496 166.313 113.524 166.922 112.414 167.518Z" fill="#22D36B"/>
</g>
</g>
</g>
<path d="M129.38 107.846L155.205 136.384H157.912V84.8814H147.644V113.419L121.893 83.7563H119.175V135.322H129.38V107.846Z" fill="#16243E"/>
<path d="M210.77 135.322V125.217H194.577V115.123H207.988V105.018H194.577V94.9129H209.921V84.8183H184.372V135.322H210.77Z" fill="#16243E"/>
<path d="M230.026 135.323H242.439L252.283 118.015L262.063 135.323H274.115L258.07 108.404L271.981 84.7448H259.918L252.283 98.8035L244.584 84.7448H232.245L246.081 108.404L230.026 135.323Z" fill="#16243E"/>
<path d="M321.69 135.322V125.217H305.497V115.123H318.908V105.018H305.497V94.9129H320.841V84.8183H295.292V135.322H321.69Z" fill="#16243E"/>
<path d="M362.067 136.384H364.35L385.46 84.8183H373.694L366.845 101.979L363.203 112.084L359.497 101.621L352.722 84.8183H340.946L362.067 136.384Z" fill="#16243E"/>
<path d="M431.181 136.027C466.287 136.027 466.287 83.9666 431.181 83.9666C396.086 83.9666 396.086 136.027 431.181 136.027ZM431.181 125.575C410.782 125.575 410.782 94.3556 431.181 94.3556C451.59 94.3556 451.59 125.575 431.181 125.575Z" fill="#16243E"/>
<path d="M482.037 84.8183V135.322H508.435V125.217H492.242V84.8183H482.037Z" fill="#16243E"/>
<path d="M548.027 136.384H550.31L571.421 84.8183H559.655L552.806 101.979L549.164 112.084L545.458 101.621L538.683 84.8183H526.906L548.027 136.384Z" fill="#16243E"/>
<path d="M619 135.322V125.217H602.806V115.123H616.218V105.018H602.806V94.9129H618.15V84.8183H592.602V135.322H619Z" fill="#16243E"/>
</svg>
