<?xml version="1.0" encoding="UTF-8" standalone="no" ?>
<!DOCTYPE svg PUBLIC "-//W3C//DTD SVG 1.1//EN" "http://www.w3.org/Graphics/SVG/1.1/DTD/svg11.dtd">
<svg xmlns="http://www.w3.org/2000/svg" xmlns:xlink="http://www.w3.org/1999/xlink" version="1.1" width="1080" height="1080" viewBox="0 0 1080 1080" xml:space="preserve">
<desc>Created with Fabric.js 5.2.4</desc>
<defs>
</defs>
<g transform="matrix(1 0 0 1 540 540)" id="b715b37a-27f1-4338-9dd3-bbd3d9062117"  >
<rect style="stroke: none; stroke-width: 1; stroke-dasharray: none; stroke-linecap: butt; stroke-dashoffset: 0; stroke-linejoin: miter; stroke-miterlimit: 4; fill: rgb(255,255,255); fill-rule: nonzero; opacity: 1; visibility: hidden;" vector-effect="non-scaling-stroke"  x="-540" y="-540" rx="0" ry="0" width="1080" height="1080" />
</g>
<g transform="matrix(1 0 0 1 540 540)" id="98f93b90-75cf-4545-afe7-5539d9b209b8"  >
</g>
<g transform="matrix(1 0 0 1 540 540)" id="46c32bf7-b027-41d5-8ea4-ac9faa9bfe60"  >
<path style="stroke: rgb(0,0,0); stroke-width: 0; stroke-dasharray: none; stroke-linecap: butt; stroke-dashoffset: 0; stroke-linejoin: miter; stroke-miterlimit: 4; fill: rgb(255,255,255); fill-rule: nonzero; opacity: 1;" vector-effect="non-scaling-stroke"  transform=" translate(-512, -512.01)" d="M 288.085333 581.674667 C 182.11707479289228 461.62250574657924 189.6831098524272 279.3605033348058 305.23681119703053 168.50413105685413 C 420.7905125416339 57.64775877890247 603.2094874583663 57.64775877890247 718.7631888029696 168.50413105685425 C 834.3168901475728 279.36050333480597 841.8829252071076 461.62250574657946 735.9146669999998 581.6746670000002 L 691.541333 737.066667 C 686.3014764988919 755.3860581706108 669.5500304632393 768.0105886733204 650.496 768 L 373.504 768 C 354.46578525143093 767.99154226813 337.73684095038715 755.3708509164519 332.50133300000005 737.066667 L 288.12800000000004 581.674667 z M 682.666667 384 C 682.666667 407.5641495102088 663.5641495102087 426.666667 640 426.666667 C 616.4358504897912 426.666667 597.3333329999999 407.5641495102088 597.3333329999999 384 C 597.3333329999999 336.8717015318672 559.1282984681327 298.666667 511.9999999999999 298.666667 C 488.4358507691159 298.6666666049752 469.33333371525566 279.564149230884 469.33333371525566 256 C 469.33333371525566 232.435850769116 488.4358507691159 213.33333339502488 511.99999999999994 213.33333300000004 C 606.2565974885503 213.33333300000004 682.666667 289.7434025114497 682.666667 384 z M 405.71733299999994 682.666667 L 618.282667 682.666667 L 659.157333 539.6479999999999 L 671.957333 525.1413329999999 C 747.6331174060477 439.38533448984305 742.217973144625 309.2084848919679 659.6813444454001 230.0338642808722 C 577.1447157461752 150.8592436697765 446.8552842538249 150.85924366977645 364.3186555545999 230.03386428087208 C 281.7820268553749 309.2084848919677 276.3668825939521 439.3853344898428 352.0426669999998 525.1413329999998 L 364.84266699999995 539.6479999999999 L 405.717333 682.666667 z M 597.333333 896 C 597.333333 919.5641491196844 578.2308161196845 938.6666664477152 554.6666670000001 938.666667 L 469.3333330000001 938.666667 C 445.7691838803156 938.6666664477152 426.6666670000001 919.5641491196844 426.6666670000001 896 L 384 896 C 360.4358504897912 896 341.333333 876.8974825102088 341.333333 853.333333 L 341.333333 827.733333 C 341.333333 818.346666 349.013333 810.666666 358.4 810.666667 L 665.5999999999999 810.666667 C 674.9866669999999 810.666667 682.666667 818.3466669999999 682.666667 827.733333 L 682.666667 853.333333 C 682.666667 876.8974825102088 663.5641495102087 896 640 896 L 597.333333 896 z" stroke-linecap="round" />
</g>
</svg>